<?xml version="1.0" encoding="iso-8859-1"?>
<!-- Generator: Adobe Illustrator 19.0.0, SVG Export Plug-In . SVG Version: 6.00 Build 0)  -->
<svg xmlns="http://www.w3.org/2000/svg" xmlns:xlink="http://www.w3.org/1999/xlink" version="1.1" id="Capa_1" x="0px" y="0px" viewBox="0 0 512 512" style="enable-background:new 0 0 512 512;" xml:space="preserve" width="512px" height="512px">
<g>
	<g>
		<path d="M266.432,389.195l-19.862-19.221l19.862-19.221c5.953-5.761,6.108-15.257,0.348-21.21    c-5.762-5.953-15.258-6.109-21.211-0.348l-26.638,25.779h-41.51c-0.532-1.501-1.136-2.969-1.819-4.392l29.594-29.608h36.211    c8.284,0,15-6.716,15-15s-6.716-15-15-15H213.98v-27.427c0-8.284-6.716-15-15-15s-14.9,6.716-14.9,15v36.215l-29.694,29.607    c-1.422-0.682-2.887-1.284-4.386-1.816v-41.367l25.606-25.606c5.858-5.858,5.858-15.355,0-21.213    c-5.857-5.858-15.355-5.858-21.213,0l-19.393,19.393l-19.394-19.394c-5.857-5.858-15.355-5.858-21.213,0    c-5.858,5.858-5.858,15.355,0,21.213L120,286.186v41.367c-1.501,0.532-2.969,1.136-4.392,1.819L85.98,299.757v-36.211    c0-8.284-6.716-15-15-15s-14.9,6.716-14.9,15v27.427H28.553c-8.284,0-15,6.716-15,15s6.716,15,15,15h36.215l29.628,29.614    c-0.681,1.421-1.284,2.887-1.816,4.386H51.214l-25.607-25.607c-5.857-5.858-15.355-5.858-21.213,0    c-5.858,5.858-5.858,15.355,0,21.213l19.394,19.393L4.394,389.366c-5.859,5.858-5.859,15.355,0,21.213    c5.857,5.857,15.355,5.858,21.213,0l25.607-25.607h41.366c0.532,1.499,1.134,2.964,1.816,4.385l-29.628,29.615H28.553    c-8.284,0-15,6.716-15,15s6.716,15,15,15h27.527v27.427c0,8.284,6.616,15,14.9,15c8.284,0,15-6.716,15-15v-36.211l29.628-29.615    c1.423,0.683,2.891,1.286,4.392,1.819v41.367l-25.606,25.606c-5.858,5.858-5.858,15.355,0,21.213    c5.857,5.858,15.355,5.858,21.213,0l19.393-19.392l19.394,19.394c5.857,5.857,15.355,5.858,21.213,0    c5.858-5.858,5.858-15.355,0-21.213l-25.607-25.607v-41.367c1.499-0.532,2.964-1.134,4.386-1.816l29.694,29.608v35.855    c0,8.284,6.616,15,14.9,15s15-6.716,15-15v-27.066h27.086c8.284,0,15-6.716,15-15s-6.716-15-15-15h-35.871l-29.594-29.608    c0.683-1.424,1.286-2.891,1.819-4.392h41.51l26.638,25.779c5.958,5.764,15.454,5.602,21.211-0.348    C272.54,404.452,272.385,394.956,266.432,389.195z M135.001,384.973c-8.271,0-15-6.729-15-15s6.729-15,15-15s15,6.729,15,15    S143.271,384.973,135.001,384.973z" fill="#FFFFFF"/>
	</g>
</g>
<g>
	<g>
		<path d="M225.001,84.971h-47.58c-1.864-5.254-4.678-10.059-8.233-14.214l23.804-41.229c4.143-7.172,1.685-16.346-5.49-20.488    c-7.174-4.143-16.349-1.684-20.49,5.49l-23.792,41.208c-2.667-0.494-5.41-0.766-8.218-0.766c-2.808,0-5.552,0.271-8.219,0.766    L102.992,14.53c-4.142-7.175-13.316-9.631-20.49-5.49c-7.175,4.142-9.633,13.316-5.49,20.49l23.803,41.229    c-3.556,4.155-6.37,8.959-8.233,14.213h-47.58c-8.284,0-15,6.716-15,15s6.716,15,15,15h47.58    c1.863,5.254,4.677,10.058,8.233,14.213l-23.803,41.229c-4.143,7.175-1.685,16.348,5.49,20.49    c7.173,4.141,16.347,1.686,20.49-5.49l23.791-41.208c2.667,0.494,5.411,0.766,8.219,0.766c2.808,0,5.552-0.271,8.218-0.766    l23.792,41.208c4.142,7.174,13.315,9.632,20.49,5.49c7.175-4.142,9.633-13.316,5.49-20.49l-23.804-41.229    c3.556-4.155,6.37-8.959,8.233-14.214h47.58c8.284,0,15-6.716,15-15S233.285,84.971,225.001,84.971z M135.002,114.973    c-8.271,0-15-6.729-15-15c0-8.271,6.729-15,15-15s15,6.729,15,15C150.002,108.244,143.273,114.973,135.002,114.973z" fill="#FFFFFF"/>
	</g>
</g>
<g>
	<g>
		<path d="M467,174.972h-47.58c-1.864-5.254-4.678-10.059-8.233-14.214l23.804-41.229c4.143-7.174,1.685-16.348-5.49-20.49    c-7.175-4.143-16.348-1.684-20.49,5.49l-23.792,41.208c-2.667-0.494-5.41-0.766-8.218-0.766c-2.808,0-5.552,0.271-8.219,0.766    l-23.791-41.208c-4.143-7.175-13.317-9.631-20.49-5.49c-7.175,4.142-9.633,13.316-5.49,20.49l23.803,41.229    c-3.556,4.155-6.369,8.959-8.233,14.213h-47.58v0.002c-8.284,0-15,6.716-15,15s6.716,15,15,15h47.58    c1.864,5.254,4.677,10.058,8.233,14.213l-23.803,41.229c-4.143,7.175-1.685,16.348,5.49,20.49    c7.173,4.141,16.347,1.685,20.49-5.49l23.791-41.208c2.667,0.494,5.411,0.766,8.219,0.766c2.808,0,5.552-0.271,8.218-0.766    l23.792,41.208c4.142,7.174,13.315,9.632,20.49,5.49c7.175-4.142,9.633-13.316,5.49-20.49l-23.804-41.229    c3.556-4.155,6.37-8.959,8.233-14.214H467c8.284,0,15-6.716,15-15S475.284,174.972,467,174.972z M377.002,204.973    c-8.271,0-15-6.729-15-15s6.728-15,15-15c8.271,0,15,6.729,15,15S385.273,204.973,377.002,204.973z" fill="#FFFFFF"/>
	</g>
</g>
<g>
	<g>
		<circle cx="497" cy="309.97" r="15" fill="#FFFFFF"/>
	</g>
</g>
<g>
	<g>
		<circle cx="287" cy="39.973" r="15" fill="#FFFFFF"/>
	</g>
</g>
<g>
	<g>
		<path d="M407.002,384.973h-15v-15c0-8.284-6.716-15-15-15s-15,6.716-15,15v15h-15c-8.284,0-15,6.716-15,15s6.716,15,15,15h15v15    c0,8.284,6.716,15,15,15s15-6.716,15-15v-15h15c8.284,0,15-6.716,15-15S415.286,384.973,407.002,384.973z" fill="#FFFFFF"/>
	</g>
</g>
<g>
</g>
<g>
</g>
<g>
</g>
<g>
</g>
<g>
</g>
<g>
</g>
<g>
</g>
<g>
</g>
<g>
</g>
<g>
</g>
<g>
</g>
<g>
</g>
<g>
</g>
<g>
</g>
<g>
</g>
</svg>
