<?xml version="1.0" encoding="utf-8"?>
<!-- Generator: Adobe Illustrator 21.1.0, SVG Export Plug-In . SVG Version: 6.00 Build 0)  -->
<svg version="1.1" id="Camada_1" xmlns="http://www.w3.org/2000/svg" xmlns:xlink="http://www.w3.org/1999/xlink" x="0px" y="0px"
	 viewBox="0 0 1080 1080" style="enable-background:new 0 0 1080 1080;" xml:space="preserve">
<style type="text/css">
	.st0{opacity:0.2;fill:#CCCCCC;enable-background:new    ;}
	.st1{fill:#494949;}
	.st2{fill:#FFFFFF;}
	.st3{fill:#DA9A5B;}
	.st4{fill:#BD864F;}
	.st5{opacity:0.5;fill:#BD864F;enable-background:new    ;}
	.st6{fill:#AF743F;}
	.st7{fill:#936138;}
</style>
<path class="st0" d="M330.9,775.3l130.2,25.6c65.6,12.9,132.8,12.4,198.2-1.4L774,775.3c7.9-1.7,6.8-14.3-1.3-14.3H332.1
	C324,761,322.9,773.7,330.9,775.3z"/>
<circle cx="715" cy="348.9" r="63.1"/>
<circle cx="399.3" cy="347.8" r="63.1"/>
<polyline class="st1" points="779.5,517.3 779.5,517.3 303.1,517.3 434.5,509.3 779.5,517.3 "/>
<path class="st2" d="M731.2,443.8c0,31.1,23.3,56.8,9,82c-29.9,52.9-117,122-182,122c-71.3,0-162.1-66.6-189-128
	c-9.4-21.4,14-51.2,14-76c0-96.1,77.9-174,174-174S731.2,347.7,731.2,443.8z"/>
<path d="M579.3,474.7c-3.7,13-10.5,18.5-23.4,18.5s-19.7-5.6-23.4-18.5c-3.6-12.4,10.5-10.5,23.4-10.5S582.9,462.3,579.3,474.7z"/>
<path class="st3" d="M761.3,768.2l-205.9,10.1c-0.6,0-3.3,0-3.9,0l-207.9-10.1c-10.2-0.5-18.1-8.9-18.1-19V536.4
	c0-10.5,8.5-19.1,19.1-19.1h415.9c10.5,0,19.1,8.5,19.1,19.1v212.8C779.5,759.4,771.5,767.7,761.3,768.2z"/>
<path class="st4" d="M303.1,517.3l-25,92c-5,18.5,2.2,40.3,13.4,40.6l237,6.3c10.1,0.3,23.7-14.7,23.7-34.1l0.2-104.8H303.1z"/>
<path class="st4" d="M568.6,517.3h-8c1.6,55.2-6.8,139.5,28.1,139.4l193.9-3.6c10.1,0.3,23.2-13.5,20.7-31.4l-23.8-104.4
	L568.6,517.3L568.6,517.3z"/>
<g>
	<ellipse transform="matrix(0.5482 -0.8364 0.8364 0.5482 -140.9322 584.688)" cx="470.7" cy="422.8" rx="54" ry="38"/>
	<ellipse transform="matrix(0.8364 -0.5482 0.5482 0.8364 -129.0361 413.2766)" cx="627.7" cy="422.8" rx="38" ry="54"/>
</g>
<path d="M626.8,509.8c20.9-8.5,42.5-7.7,64.5,1c13.2,5.2,21.5,18.6,19.6,32.6c-1.8,13-11.8,23.4-29.8,30.5
	c-15.7,6.2-32.8,6.9-48.6,1c-17.8-6.6-27.4-19.6-24.8-40.4C609.1,523.4,616.4,514,626.8,509.8z"/>
<path class="st5" d="M557.3,778.1l-2.1,0.2h-2v-96c0-1.1,0.9-2,2-2l0,0c1.1,0,2,0.9,2,2L557.3,778.1z"/>
<path d="M414.4,509.8c20.9-8.5,42.5-7.7,64.5,1c13.2,5.2,21.5,18.6,19.6,32.6c-1.8,13-11.8,23.4-29.8,30.5
	c-15.7,6.2-32.8,6.9-48.6,1c-17.8-6.6-27.4-19.6-24.8-40.4C396.7,523.4,404,514,414.4,509.8z"/>
<g>
	<path class="st6" d="M397.2,695.5c0,4.4-0.7,8.3-2.1,11.7s-3.4,6.3-6,8.6s-5.9,4.1-9.7,5.3c-3.8,1.2-8.3,1.8-13.5,1.8h-6.6V748
		c0,0.4-0.1,0.8-0.4,1.1s-0.7,0.6-1.3,0.8c-0.6,0.2-1.4,0.4-2.4,0.5s-2.3,0.2-3.9,0.2c-1.5,0-2.8-0.1-3.9-0.2s-1.9-0.3-2.5-0.5
		s-1-0.5-1.3-0.8c-0.2-0.3-0.4-0.7-0.4-1.1v-70.8c0-1.9,0.5-3.3,1.5-4.3s2.3-1.4,3.9-1.4h18.5c1.9,0,3.6,0.1,5.3,0.2
		c1.7,0.1,3.7,0.4,6,0.9s4.7,1.3,7.1,2.6s4.5,2.8,6.2,4.8c1.7,1.9,3,4.2,3.9,6.7C396.8,689.4,397.2,692.3,397.2,695.5z M380.5,696.6
		c0-2.8-0.5-5-1.5-6.8s-2.2-3.1-3.6-4s-2.9-1.4-4.5-1.6c-1.6-0.2-3.2-0.3-4.8-0.3h-6.8v26.7h7.2c2.6,0,4.7-0.3,6.4-1
		c1.7-0.7,3.1-1.7,4.2-2.9s1.9-2.7,2.5-4.4C380.2,700.5,380.5,698.7,380.5,696.6z"/>
	<path class="st6" d="M443.8,748.4c0,0.6-0.2,1-0.6,1.3s-1,0.6-1.9,0.7c-0.9,0.1-2.2,0.2-3.9,0.2c-1.8,0-3.2-0.1-4-0.2
		c-0.8-0.1-1.4-0.4-1.8-0.7c-0.3-0.3-0.5-0.8-0.5-1.3V744c-2.2,2.4-4.8,4.3-7.6,5.6c-2.9,1.3-6,2-9.5,2c-2.9,0-5.5-0.4-7.9-1.1
		c-2.4-0.7-4.5-1.9-6.3-3.3c-1.8-1.5-3.1-3.3-4.1-5.5s-1.5-4.7-1.5-7.7c0-3.2,0.6-5.9,1.9-8.2c1.2-2.3,3.1-4.3,5.5-5.8
		c2.5-1.5,5.5-2.6,9.1-3.4c3.6-0.7,7.9-1.1,12.7-1.1h5.3v-3.3c0-1.7-0.2-3.2-0.5-4.5s-0.9-2.3-1.7-3.2c-0.8-0.9-1.8-1.5-3.2-1.9
		c-1.3-0.4-2.9-0.6-4.9-0.6c-2.6,0-4.8,0.3-6.8,0.9c-2,0.6-3.8,1.2-5.3,1.9s-2.8,1.3-3.9,1.9c-1,0.6-1.9,0.9-2.5,0.9
		c-0.4,0-0.8-0.1-1.2-0.4c-0.3-0.3-0.6-0.7-0.9-1.2c-0.2-0.5-0.4-1.2-0.5-1.9c-0.1-0.8-0.2-1.6-0.2-2.6c0-1.3,0.1-2.2,0.3-3
		c0.2-0.7,0.6-1.4,1.2-2s1.6-1.2,3-1.9s3.1-1.4,5-2s4-1.1,6.2-1.5s4.6-0.6,7-0.6c4.3,0,7.9,0.4,10.9,1.2s5.5,2.1,7.4,3.8
		s3.4,3.9,4.3,6.7c0.9,2.7,1.3,5.9,1.3,9.7v36.5H443.8z M428.7,725.1h-5.8c-2.5,0-4.6,0.2-6.3,0.5c-1.7,0.4-3.2,0.9-4.3,1.6
		s-1.9,1.6-2.4,2.6s-0.8,2.2-0.8,3.6c0,2.3,0.7,4.1,2.2,5.3c1.4,1.3,3.4,1.9,6,1.9c2.1,0,4.1-0.5,5.9-1.6s3.6-2.7,5.5-4.8
		L428.7,725.1L428.7,725.1z"/>
	<path class="st6" d="M502.1,748.2c0,0.4-0.1,0.8-0.4,1.1c-0.2,0.3-0.6,0.6-1.2,0.8s-1.3,0.4-2.3,0.5s-2.2,0.2-3.7,0.2
		s-2.7-0.1-3.7-0.2c-1-0.1-1.8-0.3-2.3-0.5c-0.6-0.2-1-0.5-1.2-0.8s-0.4-0.7-0.4-1.1v-30.9c0-2.6-0.2-4.7-0.6-6.2s-0.9-2.8-1.7-3.9
		c-0.7-1.1-1.7-1.9-2.8-2.5s-2.5-0.9-4-0.9c-1.9,0-3.9,0.7-5.9,2.1c-2,1.4-4.1,3.5-6.2,6.2v36.1c0,0.4-0.1,0.8-0.4,1.1
		c-0.2,0.3-0.7,0.6-1.2,0.8c-0.6,0.2-1.4,0.4-2.3,0.5c-1,0.1-2.2,0.2-3.7,0.2s-2.7-0.1-3.7-0.2c-1-0.1-1.8-0.3-2.3-0.5
		c-0.6-0.2-1-0.5-1.2-0.8s-0.4-0.7-0.4-1.1V694c0-0.4,0.1-0.8,0.3-1.1c0.2-0.3,0.6-0.6,1.1-0.8s1.2-0.4,2-0.5s1.9-0.2,3.1-0.2
		c1.3,0,2.4,0.1,3.2,0.2c0.9,0.1,1.5,0.3,2,0.5s0.8,0.5,1,0.8s0.3,0.7,0.3,1.1v6.3c3-3.2,6-5.7,9.1-7.3s6.3-2.4,9.7-2.4
		c3.7,0,6.8,0.6,9.3,1.8s4.6,2.9,6.1,5c1.6,2.1,2.7,4.5,3.4,7.3c0.7,2.8,1,6.2,1,10.1L502.1,748.2L502.1,748.2z"/>
	<path class="st6" d="M523.7,748.2c0,0.4-0.1,0.8-0.4,1.1c-0.2,0.3-0.7,0.6-1.2,0.8c-0.6,0.2-1.4,0.4-2.3,0.5
		c-1,0.1-2.2,0.2-3.7,0.2s-2.7-0.1-3.7-0.2c-1-0.1-1.8-0.3-2.3-0.5c-0.6-0.2-1-0.5-1.2-0.8s-0.4-0.7-0.4-1.1v-79.9
		c0-0.4,0.1-0.8,0.4-1.1c0.2-0.3,0.7-0.6,1.2-0.8c0.6-0.2,1.4-0.4,2.3-0.5c1-0.1,2.2-0.2,3.7-0.2s2.7,0.1,3.7,0.2
		c1,0.1,1.8,0.3,2.3,0.5c0.6,0.2,1,0.5,1.2,0.8s0.4,0.7,0.4,1.1V748.2z"/>
	<path class="st6" d="M580.4,719.5c0,1.9-0.4,3.2-1.2,4.1c-0.8,0.9-2,1.3-3.4,1.3h-33c0,2.3,0.3,4.4,0.8,6.3
		c0.5,1.9,1.4,3.5,2.6,4.8c1.2,1.3,2.7,2.3,4.6,3c1.9,0.7,4.1,1,6.8,1s5-0.2,7.1-0.6c2-0.4,3.8-0.8,5.3-1.3s2.7-0.9,3.7-1.3
		c1-0.4,1.8-0.6,2.4-0.6c0.4,0,0.7,0.1,0.9,0.2c0.2,0.1,0.4,0.4,0.6,0.8c0.2,0.4,0.3,0.9,0.3,1.5c0.1,0.7,0.1,1.5,0.1,2.5
		c0,0.9,0,1.7-0.1,2.3c0,0.6-0.1,1.2-0.2,1.6c-0.1,0.4-0.2,0.8-0.4,1.1s-0.4,0.6-0.6,0.9c-0.3,0.3-1,0.7-2.2,1.2s-2.7,1-4.5,1.4
		c-1.8,0.5-3.9,0.9-6.3,1.2c-2.4,0.3-4.9,0.5-7.5,0.5c-4.8,0-9-0.6-12.7-1.8c-3.6-1.2-6.7-3.1-9.1-5.5c-2.4-2.5-4.2-5.6-5.4-9.4
		c-1.2-3.8-1.8-8.2-1.8-13.3c0-4.8,0.6-9.2,1.9-13c1.3-3.9,3.1-7.2,5.5-9.8c2.4-2.7,5.3-4.8,8.7-6.2s7.3-2.1,11.6-2.1
		c4.5,0,8.4,0.7,11.6,2c3.2,1.3,5.9,3.2,7.9,5.6c2.1,2.4,3.6,5.2,4.6,8.4s1.5,6.8,1.5,10.6L580.4,719.5L580.4,719.5z M565.5,715.1
		c0.1-4.3-0.7-7.7-2.6-10.1c-1.8-2.5-4.7-3.7-8.5-3.7c-1.9,0-3.6,0.4-5.1,1.1c-1.4,0.7-2.6,1.7-3.6,2.9s-1.7,2.7-2.2,4.4
		s-0.8,3.5-0.9,5.4L565.5,715.1L565.5,715.1z"/>
	<path class="st6" d="M615.5,742.8c0,1.8-0.1,3.2-0.3,4.1c-0.2,1-0.5,1.6-0.9,2s-0.9,0.7-1.6,1c-0.7,0.3-1.5,0.6-2.5,0.8
		s-2,0.4-3.1,0.5s-2.2,0.2-3.4,0.2c-3,0-5.7-0.4-7.9-1.2s-4.1-2-5.5-3.6c-1.5-1.6-2.5-3.6-3.2-6s-1-5.3-1-8.6v-27.8h-6.5
		c-0.8,0-1.4-0.5-1.8-1.4c-0.4-1-0.6-2.5-0.6-4.8c0-1.2,0.1-2.2,0.2-3c0.1-0.8,0.3-1.4,0.5-1.9s0.5-0.8,0.8-1s0.7-0.3,1.1-0.3h6.4
		v-12.1c0-0.4,0.1-0.8,0.3-1.1s0.6-0.6,1.2-0.8c0.6-0.2,1.4-0.4,2.4-0.5s2.2-0.2,3.7-0.2s2.7,0.1,3.7,0.2c1,0.1,1.8,0.3,2.3,0.5
		c0.6,0.2,1,0.5,1.2,0.8s0.4,0.7,0.4,1.1v12.1H613c0.4,0,0.8,0.1,1.1,0.3s0.6,0.5,0.8,1s0.4,1.1,0.5,1.9c0.1,0.8,0.2,1.8,0.2,3
		c0,2.2-0.2,3.8-0.6,4.8c-0.4,1-1,1.4-1.8,1.4h-11.9v25.5c0,3,0.5,5.2,1.4,6.7s2.6,2.2,5,2.2c0.8,0,1.5-0.1,2.2-0.2
		c0.6-0.1,1.2-0.3,1.7-0.5s0.9-0.3,1.3-0.5c0.3-0.1,0.7-0.2,0.9-0.2s0.5,0.1,0.7,0.2c0.2,0.1,0.4,0.4,0.5,0.9c0.1,0.4,0.2,1,0.3,1.7
		C615.4,740.8,615.5,741.7,615.5,742.8z"/>
	<path class="st6" d="M671.4,720.5c0,4.6-0.6,8.8-1.8,12.6s-3.1,7.1-5.5,9.8c-2.5,2.8-5.6,4.9-9.3,6.4s-8.1,2.2-13.1,2.2
		c-4.8,0-9-0.7-12.6-2s-6.5-3.3-8.9-5.8c-2.4-2.6-4.1-5.7-5.2-9.4c-1.1-3.7-1.7-8-1.7-12.8c0-4.6,0.6-8.8,1.9-12.7
		c1.2-3.8,3.1-7.1,5.6-9.8s5.6-4.9,9.3-6.4s8.1-2.2,13-2.2s9.1,0.7,12.6,2c3.6,1.3,6.5,3.3,8.8,5.8c2.3,2.6,4.1,5.7,5.2,9.4
		C670.9,711.4,671.4,715.7,671.4,720.5z"/>
	<path class="st6" d="M761.1,748.2c0,0.4-0.1,0.8-0.4,1.1c-0.2,0.3-0.6,0.6-1.2,0.8c-0.6,0.2-1.3,0.4-2.3,0.5s-2.2,0.2-3.7,0.2
		s-2.8-0.1-3.8-0.2c-1-0.1-1.8-0.3-2.3-0.5c-0.6-0.2-1-0.5-1.2-0.8s-0.3-0.7-0.3-1.1V716c0-1.8-0.2-3.5-0.5-5s-0.9-2.8-1.6-3.9
		c-0.7-1.1-1.6-1.9-2.7-2.5c-1.1-0.6-2.4-0.9-3.9-0.9c-1.8,0-3.7,0.7-5.5,2.1c-1.9,1.4-3.9,3.5-6.1,6.2v36.1c0,0.4-0.1,0.8-0.4,1.1
		c-0.2,0.3-0.7,0.6-1.2,0.8c-0.6,0.2-1.4,0.4-2.3,0.5c-1,0.1-2.2,0.2-3.6,0.2c-1.5,0-2.7-0.1-3.7-0.2c-1-0.1-1.8-0.3-2.3-0.5
		c-0.6-0.2-1-0.5-1.2-0.8s-0.4-0.7-0.4-1.1V716c0-1.8-0.2-3.5-0.5-5s-0.9-2.8-1.5-3.9c-0.7-1.1-1.6-1.9-2.7-2.5
		c-1.1-0.6-2.4-0.9-3.8-0.9c-1.9,0-3.7,0.7-5.6,2.1c-1.9,1.4-3.9,3.5-6,6.2v36.1c0,0.4-0.1,0.8-0.4,1.1c-0.2,0.3-0.7,0.6-1.2,0.8
		c-0.6,0.2-1.4,0.4-2.3,0.5c-1,0.1-2.2,0.2-3.7,0.2s-2.7-0.1-3.7-0.2c-1-0.1-1.8-0.3-2.3-0.5c-0.6-0.2-1-0.5-1.2-0.8
		s-0.4-0.7-0.4-1.1V694c0-0.4,0.1-0.8,0.3-1.1s0.6-0.6,1.1-0.8s1.2-0.4,2-0.5s1.9-0.2,3.1-0.2c1.3,0,2.4,0.1,3.2,0.2
		c0.9,0.1,1.5,0.3,2,0.5s0.8,0.5,1,0.8s0.3,0.7,0.3,1.1v6.3c3-3.2,6-5.7,9-7.3s6.1-2.4,9.3-2.4c2.2,0,4.2,0.2,6,0.7s3.4,1.1,4.8,2
		c1.4,0.9,2.6,1.9,3.6,3.1c1,1.2,1.9,2.6,2.6,4.1c1.6-1.7,3.2-3.2,4.8-4.5s3.1-2.3,4.6-3.1s3-1.4,4.6-1.8c1.5-0.4,3.1-0.6,4.7-0.6
		c3.6,0,6.6,0.6,9.1,1.8s4.5,2.9,6,5s2.6,4.5,3.3,7.3c0.6,2.8,1,5.8,1,8.9v34.7H761.1z"/>
</g>
<circle class="st2" cx="476.2" cy="415.5" r="8.8"/>
<circle class="st2" cx="622.9" cy="415.5" r="8.8"/>
<g>
	<path class="st7" d="M664.2,722.6l-9.9,2.6l-3.8-2.2v-4.1l3.8-2.2l10,2.7c0.2,0.1,0.4,0.1,0.6,0.1c1,0,1.9-0.7,2.2-1.7
		c0.3-1.2-0.4-2.5-1.6-2.8l-5.4-1.5l5-2.9c1.1-0.6,1.5-2,0.9-3.2c-0.6-1.1-2-1.5-3.2-0.9l-5,2.9l1.5-5.4c0.3-1.2-0.4-2.5-1.6-2.8
		c-1.2-0.3-2.5,0.4-2.8,1.6l-2.6,9.9l-3.8,2.2l-3.6-2.1v-4.4l7.3-7.3c0.9-0.9,0.9-2.4,0-3.3c-0.9-0.9-2.4-0.9-3.3,0l-4,4v-5.8
		c0-1.3-1-2.3-2.3-2.3c-1.3,0-2.3,1-2.3,2.3v5.8l-4-4c-0.9-0.9-2.4-0.9-3.3,0c-0.9,0.9-0.9,2.4,0,3.3l7.3,7.3v4.4l-3.6,2l-3.8-2.2
		l-2.6-9.9c-0.3-1.2-1.6-2-2.8-1.6c-1.2,0.3-2,1.6-1.6,2.8l1.5,5.4l-5-2.9c-1.1-0.6-2.5-0.3-3.2,0.9c-0.6,1.1-0.3,2.5,0.9,3.2l5,2.9
		l-5.4,1.5c-1.2,0.3-2,1.6-1.6,2.8c0.3,1,1.2,1.7,2.2,1.7c0.2,0,0.4,0,0.6-0.1l10-2.7l3.8,2.2v4.1l-3.8,2.2l-9.9-2.6
		c-1.2-0.3-2.5,0.4-2.8,1.6c-0.3,1.2,0.4,2.5,1.6,2.8l5.4,1.5l-5,2.9c-1.1,0.6-1.5,2-0.9,3.2c0.4,0.8,1.2,1.2,2,1.2
		c0.4,0,0.8-0.1,1.2-0.3l5-2.9l-1.5,5.5c-0.3,1.2,0.4,2.5,1.6,2.8c0.2,0.1,0.4,0.1,0.6,0.1c1,0,1.9-0.7,2.2-1.7l2.7-10l3.8-2.2
		l3.6,2v4.5l-7.3,7.3c-0.9,0.9-0.9,2.4,0,3.3c0.4,0.4,1,0.7,1.6,0.7s1.2-0.2,1.6-0.7l4-4v5.8c0,1.3,1,2.3,2.3,2.3s2.3-1,2.3-2.3
		v-5.8l4,4c0.4,0.4,1,0.7,1.6,0.7s1.2-0.2,1.6-0.7c0.9-0.9,0.9-2.4,0-3.3l-7.3-7.3v-4.4l3.6-2.1l3.8,2.2l2.7,10
		c0.3,1,1.2,1.7,2.2,1.7c0.2,0,0.4,0,0.6-0.1c1.2-0.3,2-1.6,1.6-2.8l-1.5-5.5l5,2.9c0.4,0.2,0.8,0.3,1.2,0.3c0.8,0,1.6-0.4,2-1.2
		c0.6-1.1,0.3-2.5-0.9-3.2l-5-2.9l5.4-1.5c1.2-0.3,2-1.6,1.6-2.8C666.7,723,665.4,722.3,664.2,722.6z M645.9,723.1l-3.6,2.1
		l-3.6-2.1v-4.1l3.6-2.1l3.6,2.1V723.1z"/>
</g>
</svg>
