<?xml version="1.0" encoding="utf-8"?>
<!-- Generator: Adobe Illustrator 21.1.0, SVG Export Plug-In . SVG Version: 6.00 Build 0)  -->
<svg version="1.1" id="Camada_1" xmlns="http://www.w3.org/2000/svg" xmlns:xlink="http://www.w3.org/1999/xlink" x="0px" y="0px"
	 viewBox="0 0 1080 1080" style="enable-background:new 0 0 1080 1080;" xml:space="preserve">
<style type="text/css">
	.st0{opacity:0.2;fill:#CCCCCC;}
	.st1{fill:#494949;}
	.st2{fill:#FFFFFF;}
	.st3{fill:#DA9A5B;}
	.st4{fill:#BD864F;}
	.st5{opacity:0.5;fill:#BD864F;}
	.st6{fill:#AF743F;}
	.st7{opacity:0.8;}
	.st8{opacity:0.1;}
	.st9{opacity:0.3;}
</style>
<path class="st0" d="M330.9,775.3l130.2,25.6c65.6,12.9,132.8,12.4,198.2-1.4l114.7-24.2c7.9-1.7,6.8-14.3-1.3-14.3H332.1
	C324,761,322.9,773.7,330.9,775.3z"/>
<circle cx="715" cy="348.9" r="63.1"/>
<circle cx="399.3" cy="347.8" r="63.1"/>
<polyline class="st1" points="779.5,517.3 779.5,517.3 303.1,517.3 434.5,509.3 779.5,517.3 "/>
<path class="st2" d="M731.2,443.8c0,31.1,23.3,56.8,9,82c-29.9,52.9-117,122-182,122c-71.3,0-162.1-66.6-189-128
	c-9.4-21.4,14-51.2,14-76c0-96.1,77.9-174,174-174S731.2,347.7,731.2,443.8z"/>
<path d="M579.3,474.7c-3.7,13-10.5,18.5-23.4,18.5s-19.7-5.6-23.4-18.5c-3.6-12.4,10.5-10.5,23.4-10.5S582.9,462.3,579.3,474.7z"/>
<path class="st3" d="M761.3,768.2l-205.9,10.1c-0.6,0-3.3,0-3.9,0l-207.9-10.1c-10.2-0.5-18.1-8.9-18.1-19V536.4
	c0-10.5,8.5-19.1,19.1-19.1h415.9c10.5,0,19.1,8.5,19.1,19.1v212.8C779.5,759.4,771.5,767.7,761.3,768.2z"/>
<path class="st4" d="M303.1,517.3l-25,92c-5,18.5,2.2,40.3,13.4,40.6l237,6.3c10.1,0.3,23.7-14.7,23.7-34.1l0.2-104.8H303.1z"/>
<path class="st4" d="M568.6,517.3h-8c1.6,55.2-6.8,139.5,28.1,139.4l193.9-3.6c10.1,0.3,23.2-13.5,20.7-31.4l-23.8-104.4H568.6z"/>
<g>
	<ellipse transform="matrix(0.5482 -0.8364 0.8364 0.5482 -140.9813 584.697)" cx="470.7" cy="422.8" rx="54" ry="38"/>
	<ellipse transform="matrix(0.8364 -0.5482 0.5482 0.8364 -129.0767 413.2459)" cx="627.7" cy="422.8" rx="38" ry="54"/>
</g>
<path d="M626.8,509.8c20.9-8.5,42.5-7.7,64.5,1c13.2,5.2,21.5,18.6,19.6,32.6c-1.8,13-11.8,23.4-29.8,30.5
	c-15.7,6.2-32.8,6.9-48.6,1c-17.8-6.6-27.4-19.6-24.8-40.4C609.1,523.4,616.4,514,626.8,509.8z"/>
<path class="st5" d="M557.3,778.1c0,0-2.1,0.2-2.1,0.2l-2,0v-96c0-1.1,0.9-2,2-2l0,0c1.1,0,2,0.9,2,2L557.3,778.1z"/>
<path d="M414.4,509.8c20.9-8.5,42.5-7.7,64.5,1c13.2,5.2,21.5,18.6,19.6,32.6c-1.8,13-11.8,23.4-29.8,30.5
	c-15.7,6.2-32.8,6.9-48.6,1c-17.8-6.6-27.4-19.6-24.8-40.4C396.7,523.4,404,514,414.4,509.8z"/>
<g>
	<path class="st6" d="M397.2,695.5c0,4.4-0.7,8.3-2.1,11.7c-1.4,3.4-3.4,6.3-6,8.6c-2.6,2.3-5.9,4.1-9.7,5.3
		c-3.8,1.2-8.3,1.8-13.5,1.8h-6.6v25.1c0,0.4-0.1,0.8-0.4,1.1c-0.3,0.3-0.7,0.6-1.3,0.8c-0.6,0.2-1.4,0.4-2.4,0.5
		c-1,0.1-2.3,0.2-3.9,0.2c-1.5,0-2.8-0.1-3.9-0.2s-1.9-0.3-2.5-0.5c-0.6-0.2-1-0.5-1.3-0.8c-0.2-0.3-0.4-0.7-0.4-1.1v-70.8
		c0-1.9,0.5-3.3,1.5-4.3c1-1,2.3-1.4,3.9-1.4h18.5c1.9,0,3.6,0.1,5.3,0.2c1.7,0.1,3.7,0.4,6,0.9c2.3,0.5,4.7,1.3,7.1,2.6
		c2.4,1.3,4.5,2.8,6.2,4.8c1.7,1.9,3,4.2,3.9,6.7C396.8,689.4,397.2,692.3,397.2,695.5z M380.5,696.6c0-2.8-0.5-5-1.5-6.8
		c-1-1.8-2.2-3.1-3.6-4c-1.4-0.9-2.9-1.4-4.5-1.6c-1.6-0.2-3.2-0.3-4.8-0.3h-6.8v26.7h7.2c2.6,0,4.7-0.3,6.4-1
		c1.7-0.7,3.1-1.7,4.2-2.9c1.1-1.2,1.9-2.7,2.5-4.4C380.2,700.5,380.5,698.7,380.5,696.6z"/>
	<path class="st6" d="M443.8,748.4c0,0.6-0.2,1-0.6,1.3c-0.4,0.3-1,0.6-1.9,0.7c-0.9,0.1-2.2,0.2-3.9,0.2c-1.8,0-3.2-0.1-4-0.2
		c-0.8-0.1-1.4-0.4-1.8-0.7c-0.3-0.3-0.5-0.8-0.5-1.3V744c-2.2,2.4-4.8,4.3-7.6,5.6c-2.9,1.3-6,2-9.5,2c-2.9,0-5.5-0.4-7.9-1.1
		c-2.4-0.7-4.5-1.9-6.3-3.3c-1.8-1.5-3.1-3.3-4.1-5.5c-1-2.2-1.5-4.7-1.5-7.7c0-3.2,0.6-5.9,1.9-8.2c1.2-2.3,3.1-4.3,5.5-5.8
		c2.5-1.5,5.5-2.6,9.1-3.4c3.6-0.7,7.9-1.1,12.7-1.1h5.3v-3.3c0-1.7-0.2-3.2-0.5-4.5c-0.3-1.3-0.9-2.3-1.7-3.2
		c-0.8-0.9-1.8-1.5-3.2-1.9c-1.3-0.4-2.9-0.6-4.9-0.6c-2.6,0-4.8,0.3-6.8,0.9c-2,0.6-3.8,1.2-5.3,1.9c-1.5,0.7-2.8,1.3-3.9,1.9
		c-1,0.6-1.9,0.9-2.5,0.9c-0.4,0-0.8-0.1-1.2-0.4c-0.3-0.3-0.6-0.7-0.9-1.2c-0.2-0.5-0.4-1.2-0.5-1.9c-0.1-0.8-0.2-1.6-0.2-2.6
		c0-1.3,0.1-2.2,0.3-3c0.2-0.7,0.6-1.4,1.2-2c0.6-0.6,1.6-1.2,3-1.9c1.4-0.7,3.1-1.4,5-2c1.9-0.6,4-1.1,6.2-1.5s4.6-0.6,7-0.6
		c4.3,0,7.9,0.4,10.9,1.2c3,0.8,5.5,2.1,7.4,3.8c1.9,1.7,3.4,3.9,4.3,6.7c0.9,2.7,1.3,5.9,1.3,9.7V748.4z M428.7,725.1h-5.8
		c-2.5,0-4.6,0.2-6.3,0.5c-1.7,0.4-3.2,0.9-4.3,1.6s-1.9,1.6-2.4,2.6c-0.5,1-0.8,2.2-0.8,3.6c0,2.3,0.7,4.1,2.2,5.3
		c1.4,1.3,3.4,1.9,6,1.9c2.1,0,4.1-0.5,5.9-1.6c1.8-1.1,3.6-2.7,5.5-4.8V725.1z"/>
	<path class="st6" d="M502.1,748.2c0,0.4-0.1,0.8-0.4,1.1c-0.2,0.3-0.6,0.6-1.2,0.8c-0.6,0.2-1.3,0.4-2.3,0.5
		c-1,0.1-2.2,0.2-3.7,0.2c-1.5,0-2.7-0.1-3.7-0.2c-1-0.1-1.8-0.3-2.3-0.5c-0.6-0.2-1-0.5-1.2-0.8c-0.2-0.3-0.4-0.7-0.4-1.1v-30.9
		c0-2.6-0.2-4.7-0.6-6.2c-0.4-1.5-0.9-2.8-1.7-3.9c-0.7-1.1-1.7-1.9-2.8-2.5s-2.5-0.9-4-0.9c-1.9,0-3.9,0.7-5.9,2.1
		c-2,1.4-4.1,3.5-6.2,6.2v36.1c0,0.4-0.1,0.8-0.4,1.1c-0.2,0.3-0.7,0.6-1.2,0.8c-0.6,0.2-1.4,0.4-2.3,0.5c-1,0.1-2.2,0.2-3.7,0.2
		c-1.5,0-2.7-0.1-3.7-0.2c-1-0.1-1.8-0.3-2.3-0.5c-0.6-0.2-1-0.5-1.2-0.8c-0.2-0.3-0.4-0.7-0.4-1.1V694c0-0.4,0.1-0.8,0.3-1.1
		c0.2-0.3,0.6-0.6,1.1-0.8c0.5-0.2,1.2-0.4,2-0.5c0.8-0.1,1.9-0.2,3.1-0.2c1.3,0,2.4,0.1,3.2,0.2c0.9,0.1,1.5,0.3,2,0.5
		c0.5,0.2,0.8,0.5,1,0.8c0.2,0.3,0.3,0.7,0.3,1.1v6.3c3-3.2,6-5.7,9.1-7.3c3.1-1.6,6.3-2.4,9.7-2.4c3.7,0,6.8,0.6,9.3,1.8
		c2.5,1.2,4.6,2.9,6.1,5c1.6,2.1,2.7,4.5,3.4,7.3c0.7,2.8,1,6.2,1,10.1V748.2z"/>
	<path class="st6" d="M523.7,748.2c0,0.4-0.1,0.8-0.4,1.1c-0.2,0.3-0.7,0.6-1.2,0.8c-0.6,0.2-1.4,0.4-2.3,0.5
		c-1,0.1-2.2,0.2-3.7,0.2c-1.5,0-2.7-0.1-3.7-0.2c-1-0.1-1.8-0.3-2.3-0.5c-0.6-0.2-1-0.5-1.2-0.8c-0.2-0.3-0.4-0.7-0.4-1.1v-79.9
		c0-0.4,0.1-0.8,0.4-1.1c0.2-0.3,0.7-0.6,1.2-0.8c0.6-0.2,1.4-0.4,2.3-0.5c1-0.1,2.2-0.2,3.7-0.2c1.5,0,2.7,0.1,3.7,0.2
		c1,0.1,1.8,0.3,2.3,0.5c0.6,0.2,1,0.5,1.2,0.8c0.2,0.3,0.4,0.7,0.4,1.1V748.2z"/>
	<path class="st6" d="M580.4,719.5c0,1.9-0.4,3.2-1.2,4.1c-0.8,0.9-2,1.3-3.4,1.3h-33c0,2.3,0.3,4.4,0.8,6.3
		c0.5,1.9,1.4,3.5,2.6,4.8c1.2,1.3,2.7,2.3,4.6,3c1.9,0.7,4.1,1,6.8,1c2.7,0,5-0.2,7.1-0.6c2-0.4,3.8-0.8,5.3-1.3
		c1.5-0.5,2.7-0.9,3.7-1.3c1-0.4,1.8-0.6,2.4-0.6c0.4,0,0.7,0.1,0.9,0.2c0.2,0.1,0.4,0.4,0.6,0.8c0.2,0.4,0.3,0.9,0.3,1.5
		c0.1,0.7,0.1,1.5,0.1,2.5c0,0.9,0,1.7-0.1,2.3c0,0.6-0.1,1.2-0.2,1.6c-0.1,0.4-0.2,0.8-0.4,1.1c-0.2,0.3-0.4,0.6-0.6,0.9
		c-0.3,0.3-1,0.7-2.2,1.2c-1.2,0.5-2.7,1-4.5,1.4c-1.8,0.5-3.9,0.9-6.3,1.2c-2.4,0.3-4.9,0.5-7.5,0.5c-4.8,0-9-0.6-12.7-1.8
		c-3.6-1.2-6.7-3.1-9.1-5.5c-2.4-2.5-4.2-5.6-5.4-9.4c-1.2-3.8-1.8-8.2-1.8-13.3c0-4.8,0.6-9.2,1.9-13c1.3-3.9,3.1-7.2,5.5-9.8
		c2.4-2.7,5.3-4.8,8.7-6.2c3.4-1.4,7.3-2.1,11.6-2.1c4.5,0,8.4,0.7,11.6,2c3.2,1.3,5.9,3.2,7.9,5.6c2.1,2.4,3.6,5.2,4.6,8.4
		c1,3.2,1.5,6.8,1.5,10.6V719.5z M565.5,715.1c0.1-4.3-0.7-7.7-2.6-10.1c-1.8-2.5-4.7-3.7-8.5-3.7c-1.9,0-3.6,0.4-5.1,1.1
		c-1.4,0.7-2.6,1.7-3.6,2.9c-1,1.2-1.7,2.7-2.2,4.4c-0.5,1.7-0.8,3.5-0.9,5.4H565.5z"/>
	<path class="st6" d="M615.5,742.8c0,1.8-0.1,3.2-0.3,4.1c-0.2,1-0.5,1.6-0.9,2s-0.9,0.7-1.6,1c-0.7,0.3-1.5,0.6-2.5,0.8
		c-1,0.2-2,0.4-3.1,0.5c-1.1,0.1-2.2,0.2-3.4,0.2c-3,0-5.7-0.4-7.9-1.2c-2.2-0.8-4.1-2-5.5-3.6c-1.5-1.6-2.5-3.6-3.2-6
		c-0.7-2.4-1-5.3-1-8.6v-27.8h-6.5c-0.8,0-1.4-0.5-1.8-1.4c-0.4-1-0.6-2.5-0.6-4.8c0-1.2,0.1-2.2,0.2-3c0.1-0.8,0.3-1.4,0.5-1.9
		c0.2-0.5,0.5-0.8,0.8-1c0.3-0.2,0.7-0.3,1.1-0.3h6.4v-12.1c0-0.4,0.1-0.8,0.3-1.1c0.2-0.3,0.6-0.6,1.2-0.8c0.6-0.2,1.4-0.4,2.4-0.5
		c1-0.1,2.2-0.2,3.7-0.2c1.5,0,2.7,0.1,3.7,0.2c1,0.1,1.8,0.3,2.3,0.5c0.6,0.2,1,0.5,1.2,0.8c0.2,0.3,0.4,0.7,0.4,1.1v12.1H613
		c0.4,0,0.8,0.1,1.1,0.3c0.3,0.2,0.6,0.5,0.8,1c0.2,0.5,0.4,1.1,0.5,1.9c0.1,0.8,0.2,1.8,0.2,3c0,2.2-0.2,3.8-0.6,4.8
		c-0.4,1-1,1.4-1.8,1.4h-11.9v25.5c0,3,0.5,5.2,1.4,6.7c0.9,1.5,2.6,2.2,5,2.2c0.8,0,1.5-0.1,2.2-0.2c0.6-0.1,1.2-0.3,1.7-0.5
		c0.5-0.2,0.9-0.3,1.3-0.5c0.3-0.1,0.7-0.2,0.9-0.2c0.2,0,0.5,0.1,0.7,0.2c0.2,0.1,0.4,0.4,0.5,0.9c0.1,0.4,0.2,1,0.3,1.7
		C615.4,740.8,615.5,741.7,615.5,742.8z"/>
	<path class="st6" d="M671.4,720.5c0,4.6-0.6,8.8-1.8,12.6c-1.2,3.8-3.1,7.1-5.5,9.8c-2.5,2.8-5.6,4.9-9.3,6.4
		c-3.7,1.5-8.1,2.2-13.1,2.2c-4.8,0-9-0.7-12.6-2c-3.6-1.3-6.5-3.3-8.9-5.8c-2.4-2.6-4.1-5.7-5.2-9.4c-1.1-3.7-1.7-8-1.7-12.8
		c0-4.6,0.6-8.8,1.9-12.7c1.2-3.8,3.1-7.1,5.6-9.8c2.5-2.7,5.6-4.9,9.3-6.4c3.7-1.5,8.1-2.2,13-2.2c4.9,0,9.1,0.7,12.6,2
		c3.6,1.3,6.5,3.3,8.8,5.8c2.3,2.6,4.1,5.7,5.2,9.4C670.9,711.4,671.4,715.7,671.4,720.5z"/>
	<path class="st6" d="M761.1,748.2c0,0.4-0.1,0.8-0.4,1.1c-0.2,0.3-0.6,0.6-1.2,0.8c-0.6,0.2-1.3,0.4-2.3,0.5
		c-1,0.1-2.2,0.2-3.7,0.2c-1.5,0-2.8-0.1-3.8-0.2c-1-0.1-1.8-0.3-2.3-0.5c-0.6-0.2-1-0.5-1.2-0.8c-0.2-0.3-0.3-0.7-0.3-1.1V716
		c0-1.8-0.2-3.5-0.5-5c-0.3-1.5-0.9-2.8-1.6-3.9c-0.7-1.1-1.6-1.9-2.7-2.5c-1.1-0.6-2.4-0.9-3.9-0.9c-1.8,0-3.7,0.7-5.5,2.1
		c-1.9,1.4-3.9,3.5-6.1,6.2v36.1c0,0.4-0.1,0.8-0.4,1.1c-0.2,0.3-0.7,0.6-1.2,0.8c-0.6,0.2-1.4,0.4-2.3,0.5c-1,0.1-2.2,0.2-3.6,0.2
		c-1.5,0-2.7-0.1-3.7-0.2c-1-0.1-1.8-0.3-2.3-0.5c-0.6-0.2-1-0.5-1.2-0.8c-0.2-0.3-0.4-0.7-0.4-1.1V716c0-1.8-0.2-3.5-0.5-5
		c-0.3-1.5-0.9-2.8-1.5-3.9c-0.7-1.1-1.6-1.9-2.7-2.5c-1.1-0.6-2.4-0.9-3.8-0.9c-1.9,0-3.7,0.7-5.6,2.1c-1.9,1.4-3.9,3.5-6,6.2v36.1
		c0,0.4-0.1,0.8-0.4,1.1c-0.2,0.3-0.7,0.6-1.2,0.8c-0.6,0.2-1.4,0.4-2.3,0.5c-1,0.1-2.2,0.2-3.7,0.2c-1.5,0-2.7-0.1-3.7-0.2
		c-1-0.1-1.8-0.3-2.3-0.5c-0.6-0.2-1-0.5-1.2-0.8c-0.2-0.3-0.4-0.7-0.4-1.1V694c0-0.4,0.1-0.8,0.3-1.1c0.2-0.3,0.6-0.6,1.1-0.8
		c0.5-0.2,1.2-0.4,2-0.5c0.8-0.1,1.9-0.2,3.1-0.2c1.3,0,2.4,0.1,3.2,0.2c0.9,0.1,1.5,0.3,2,0.5c0.5,0.2,0.8,0.5,1,0.8
		c0.2,0.3,0.3,0.7,0.3,1.1v6.3c3-3.2,6-5.7,9-7.3c3-1.6,6.1-2.4,9.3-2.4c2.2,0,4.2,0.2,6,0.7c1.8,0.5,3.4,1.1,4.8,2
		c1.4,0.9,2.6,1.9,3.6,3.1c1,1.2,1.9,2.6,2.6,4.1c1.6-1.7,3.2-3.2,4.8-4.5c1.6-1.3,3.1-2.3,4.6-3.1c1.5-0.8,3-1.4,4.6-1.8
		c1.5-0.4,3.1-0.6,4.7-0.6c3.6,0,6.6,0.6,9.1,1.8c2.5,1.2,4.5,2.9,6,5c1.5,2.1,2.6,4.5,3.3,7.3c0.6,2.8,1,5.8,1,8.9V748.2z"/>
</g>
<circle class="st2" cx="476.2" cy="415.5" r="8.8"/>
<circle class="st2" cx="622.9" cy="415.5" r="8.8"/>
<g class="st7">
	<path class="st2" d="M204.4,481.8l-6.3,1.7l-2.4-1.4v-2.7l2.4-1.4l6.3,1.7c0.1,0.1,0.3,0.1,0.4,0.1c0.7,0,1.2-0.5,1.4-1.1
		c0.2-0.8-0.3-1.6-1-1.8l-3.4-0.9l3.2-1.9c0.7-0.4,1-1.3,0.6-2c-0.4-0.7-1.3-1-2-0.6l-3.2,1.9l0.9-3.4c0.2-0.8-0.3-1.6-1-1.8
		c-0.8-0.2-1.6,0.3-1.8,1l-1.7,6.3l-2.4,1.4l-2.3-1.3v-2.8l4.6-4.6c0.6-0.6,0.6-1.5,0-2.1c-0.6-0.6-1.5-0.6-2.1,0l-2.5,2.5v-3.7
		c0-0.8-0.7-1.5-1.5-1.5s-1.5,0.7-1.5,1.5v3.7l-2.5-2.5c-0.6-0.6-1.5-0.6-2.1,0c-0.6,0.6-0.6,1.5,0,2.1l4.6,4.6v2.8l-2.3,1.3
		l-2.4-1.4l-1.7-6.3c-0.2-0.8-1-1.2-1.8-1s-1.2,1-1,1.8l0.9,3.4l-3.2-1.9c-0.7-0.4-1.6-0.2-2,0.6c-0.4,0.7-0.2,1.6,0.6,2l3.2,1.9
		l-3.4,0.9c-0.8,0.2-1.2,1-1,1.8c0.2,0.7,0.8,1.1,1.4,1.1c0.1,0,0.3,0,0.4-0.1l6.3-1.7l2.4,1.4v2.7l-2.4,1.4l-6.3-1.7
		c-0.8-0.2-1.6,0.3-1.8,1c-0.2,0.8,0.3,1.6,1,1.8l3.4,0.9l-3.2,1.9c-0.7,0.4-1,1.3-0.6,2c0.3,0.5,0.8,0.7,1.3,0.7
		c0.2,0,0.5-0.1,0.7-0.2l3.2-1.9l-1,3.5c-0.2,0.8,0.3,1.6,1,1.8c0.1,0.1,0.3,0.1,0.4,0.1c0.7,0,1.2-0.5,1.4-1.1l1.7-6.3l2.4-1.4
		l2.3,1.3v2.8l-4.6,4.6c-0.6,0.6-0.6,1.5,0,2.1c0.3,0.3,0.7,0.5,1,0.5c0.4,0,0.7-0.2,1-0.5l2.5-2.5v3.7c0,0.8,0.7,1.5,1.5,1.5
		c0.8,0,1.5-0.7,1.5-1.5v-3.7l2.5,2.5c0.3,0.3,0.7,0.5,1,0.5c0.4,0,0.7-0.2,1-0.5c0.6-0.6,0.6-1.5,0-2.1l-4.6-4.6v-2.8l2.3-1.3
		l2.4,1.4l1.7,6.3c0.2,0.7,0.8,1.1,1.4,1.1c0.1,0,0.3,0,0.4-0.1c0.8-0.2,1.2-1,1-1.8l-1-3.5l3.2,1.9c0.2,0.1,0.5,0.2,0.7,0.2
		c0.5,0,1-0.3,1.3-0.7c0.4-0.7,0.2-1.6-0.6-2l-3.2-1.9l3.4-0.9c0.8-0.2,1.2-1,1-1.8C206,482.1,205.2,481.6,204.4,481.8z
		 M192.7,482.1l-2.3,1.3l-2.3-1.3v-2.7l2.3-1.3l2.3,1.3V482.1z"/>
</g>
<g class="st8">
	<path class="st2" d="M309.5,448.4l-2.5,0.7l-1-0.6v-1l1-0.6l2.5,0.7c0.1,0,0.1,0,0.2,0c0.3,0,0.5-0.2,0.6-0.5
		c0.1-0.3-0.1-0.6-0.4-0.7l-1.4-0.3l1.2-0.7c0.3-0.2,0.4-0.5,0.2-0.8c-0.2-0.3-0.5-0.4-0.8-0.2l-1.2,0.7l0.3-1.4
		c0.1-0.3-0.1-0.6-0.4-0.7c-0.3-0.1-0.6,0.1-0.7,0.4l-0.7,2.5l-1,0.6l-0.9-0.5v-1.1l1.8-1.8c0.2-0.2,0.2-0.6,0-0.8s-0.6-0.2-0.8,0
		l-1,1v-1.5c0-0.3-0.3-0.6-0.6-0.6c-0.3,0-0.6,0.3-0.6,0.6v1.5l-1-1c-0.2-0.2-0.6-0.2-0.8,0c-0.2,0.2-0.2,0.6,0,0.8l1.8,1.8v1.1
		l-0.9,0.5l-1-0.6l-0.7-2.5c-0.1-0.3-0.4-0.5-0.7-0.4c-0.3,0.1-0.5,0.4-0.4,0.7l0.3,1.4l-1.2-0.7c-0.3-0.2-0.6-0.1-0.8,0.2
		c-0.2,0.3-0.1,0.6,0.2,0.8l1.2,0.7l-1.4,0.3c-0.3,0.1-0.5,0.4-0.4,0.7c0.1,0.3,0.3,0.5,0.6,0.5c0.1,0,0.1,0,0.2,0l2.5-0.7l1,0.6v1
		l-1,0.6l-2.5-0.7c-0.3-0.1-0.6,0.1-0.7,0.4c-0.1,0.3,0.1,0.6,0.4,0.7l1.4,0.3l-1.2,0.7c-0.3,0.2-0.4,0.5-0.2,0.8
		c0.1,0.2,0.3,0.3,0.5,0.3c0.1,0,0.2,0,0.3-0.1l1.2-0.7l-0.3,1.4c-0.1,0.3,0.1,0.6,0.4,0.7c0.1,0,0.1,0,0.2,0c0.3,0,0.5-0.2,0.6-0.5
		l0.7-2.5l1-0.6l0.9,0.5v1.1l-1.8,1.8c-0.2,0.2-0.2,0.6,0,0.8c0.1,0.1,0.3,0.2,0.4,0.2c0.2,0,0.3-0.1,0.4-0.2l1-1v1.5
		c0,0.3,0.3,0.6,0.6,0.6c0.3,0,0.6-0.3,0.6-0.6v-1.5l1,1c0.1,0.1,0.3,0.2,0.4,0.2s0.3-0.1,0.4-0.2c0.2-0.2,0.2-0.6,0-0.8l-1.8-1.8
		V450l0.9-0.5l1,0.6l0.7,2.5c0.1,0.3,0.3,0.5,0.6,0.5c0.1,0,0.1,0,0.2,0c0.3-0.1,0.5-0.4,0.4-0.7l-0.3-1.4l1.2,0.7
		c0.1,0.1,0.2,0.1,0.3,0.1c0.2,0,0.4-0.1,0.5-0.3c0.2-0.3,0.1-0.6-0.2-0.8l-1.2-0.7l1.4-0.3c0.3-0.1,0.5-0.4,0.4-0.7
		C310.1,448.5,309.8,448.3,309.5,448.4z M304.9,448.5L304,449l-0.9-0.5v-1l0.9-0.5l0.9,0.5V448.5z"/>
</g>
<g class="st8">
	<path class="st2" d="M191.1,631.7l-2,0.5l-0.7-0.5V631l0.7-0.5l2,0.5c0.1,0,0.1,0,0.1,0c0.2,0,0.4-0.1,0.5-0.3
		c0.1-0.2-0.1-0.5-0.3-0.6l-1.1-0.3l1-0.6c0.2-0.1,0.3-0.4,0.2-0.6c-0.1-0.2-0.4-0.3-0.6-0.2l-1,0.6l0.3-1.1
		c0.1-0.2-0.1-0.5-0.3-0.6c-0.2-0.1-0.5,0.1-0.6,0.3l-0.5,2l-0.7,0.5l-0.7-0.4V629l1.5-1.5c0.2-0.2,0.2-0.5,0-0.7
		c-0.2-0.2-0.5-0.2-0.7,0l-0.8,0.8v-1.1c0-0.2-0.2-0.5-0.5-0.5s-0.5,0.2-0.5,0.5v1.1l-0.8-0.8c-0.2-0.2-0.5-0.2-0.7,0
		c-0.2,0.2-0.2,0.5,0,0.7l1.5,1.5v0.9l-0.7,0.4l-0.7-0.5l-0.5-2c-0.1-0.2-0.3-0.4-0.6-0.3c-0.2,0.1-0.4,0.3-0.3,0.6l0.3,1.1l-1-0.6
		c-0.2-0.1-0.5-0.1-0.6,0.2c-0.1,0.2-0.1,0.5,0.2,0.6l1,0.6l-1.1,0.3c-0.2,0.1-0.4,0.3-0.3,0.6c0.1,0.2,0.2,0.3,0.5,0.3
		c0.1,0,0.1,0,0.1,0l2-0.5l0.7,0.5v0.8l-0.7,0.5l-2-0.5c-0.2-0.1-0.5,0.1-0.6,0.3c-0.1,0.2,0.1,0.5,0.3,0.6l1.1,0.3l-1,0.6
		c-0.2,0.1-0.3,0.4-0.2,0.6c0.1,0.2,0.2,0.2,0.4,0.2c0.1,0,0.2,0,0.2-0.1l1-0.6l-0.3,1.1c-0.1,0.2,0.1,0.5,0.3,0.6
		c0.1,0,0.1,0,0.1,0c0.2,0,0.4-0.1,0.5-0.3l0.5-2l0.7-0.5l0.7,0.4v0.9l-1.5,1.5c-0.2,0.2-0.2,0.5,0,0.7c0.1,0.1,0.2,0.1,0.3,0.1
		s0.2-0.1,0.3-0.1l0.8-0.8v1.1c0,0.3,0.2,0.5,0.5,0.5c0.2,0,0.5-0.2,0.5-0.5v-1.1l0.8,0.8c0.1,0.1,0.2,0.1,0.3,0.1
		c0.1,0,0.2-0.1,0.3-0.1c0.2-0.2,0.2-0.5,0-0.7l-1.5-1.5v-0.9l0.7-0.4l0.7,0.5l0.5,2c0.1,0.2,0.2,0.3,0.5,0.3c0.1,0,0.1,0,0.1,0
		c0.2-0.1,0.4-0.3,0.3-0.6l-0.3-1.1l1,0.6c0.1,0.1,0.2,0.1,0.2,0.1c0.2,0,0.3-0.1,0.4-0.2c0.1-0.2,0.1-0.5-0.2-0.6l-1-0.6l1.1-0.3
		c0.2-0.1,0.4-0.3,0.3-0.6C191.6,631.8,191.3,631.7,191.1,631.7z M187.4,631.8l-0.7,0.4l-0.7-0.4v-0.8l0.7-0.4l0.7,0.4V631.8z"/>
</g>
<g class="st8">
	<path class="st2" d="M280.1,331.8l-4.5,1.2l-1.8-1v-1.9l1.7-1l4.5,1.2c0.1,0,0.2,0.1,0.3,0.1c0.5,0,0.9-0.3,1-0.8
		c0.2-0.6-0.2-1.1-0.7-1.3l-2.5-0.7l2.3-1.3c0.5-0.3,0.7-1,0.4-1.4c-0.3-0.5-1-0.7-1.4-0.4l-2.3,1.3l0.7-2.5
		c0.2-0.6-0.2-1.1-0.7-1.3c-0.6-0.2-1.1,0.2-1.3,0.7l-1.2,4.5l-1.8,1l-1.6-1v-2l3.3-3.3c0.4-0.4,0.4-1.1,0-1.5
		c-0.4-0.4-1.1-0.4-1.5,0l-1.8,1.8v-2.7c0-0.6-0.5-1.1-1.1-1.1c-0.6,0-1.1,0.5-1.1,1.1v2.7l-1.8-1.8c-0.4-0.4-1.1-0.4-1.5,0
		c-0.4,0.4-0.4,1.1,0,1.5l3.3,3.3v2l-1.6,1l-1.8-1l-1.2-4.5c-0.2-0.6-0.7-0.9-1.3-0.7c-0.6,0.2-0.9,0.7-0.7,1.3l0.7,2.5l-2.3-1.3
		c-0.5-0.3-1.1-0.1-1.4,0.4c-0.3,0.5-0.1,1.1,0.4,1.4l2.3,1.3l-2.5,0.7c-0.6,0.2-0.9,0.7-0.7,1.3c0.1,0.5,0.6,0.8,1,0.8
		c0.1,0,0.2,0,0.3-0.1l4.5-1.2l1.7,1v1.9l-1.8,1l-4.5-1.2c-0.6-0.2-1.1,0.2-1.3,0.7s0.2,1.1,0.7,1.3l2.5,0.7l-2.3,1.3
		c-0.5,0.3-0.7,1-0.4,1.4c0.2,0.3,0.6,0.5,0.9,0.5c0.2,0,0.3-0.1,0.5-0.2l2.3-1.3l-0.7,2.5c-0.2,0.6,0.2,1.1,0.7,1.3
		c0.1,0,0.2,0.1,0.3,0.1c0.5,0,0.9-0.3,1-0.8l1.2-4.5l1.8-1l1.6,1v2l-3.3,3.3c-0.4,0.4-0.4,1.1,0,1.5c0.2,0.2,0.5,0.3,0.7,0.3
		c0.3,0,0.6-0.1,0.7-0.3l1.8-1.8v2.7c0,0.6,0.5,1.1,1.1,1.1c0.6,0,1.1-0.5,1.1-1.1v-2.7l1.8,1.8c0.2,0.2,0.5,0.3,0.7,0.3
		c0.3,0,0.6-0.1,0.7-0.3c0.4-0.4,0.4-1.1,0-1.5l-3.3-3.3v-2l1.6-1l1.8,1l1.2,4.5c0.1,0.5,0.6,0.8,1,0.8c0.1,0,0.2,0,0.3-0.1
		c0.6-0.2,0.9-0.7,0.7-1.3l-0.7-2.5l2.3,1.3c0.2,0.1,0.3,0.2,0.5,0.2c0.3,0,0.7-0.2,0.9-0.5c0.3-0.5,0.1-1.1-0.4-1.4l-2.3-1.3
		l2.5-0.7c0.6-0.2,0.9-0.7,0.7-1.3C281.3,332,280.6,331.7,280.1,331.8z M271.8,332l-1.6,1l-1.6-1v-1.9l1.6-1l1.6,1V332z"/>
</g>
<g class="st8">
	<path class="st2" d="M296.4,769l-6.8,1.8l-2.6-1.5v-2.8l2.6-1.5l6.8,1.8c0.1,0.1,0.3,0.1,0.4,0.1c0.7,0,1.4-0.5,1.5-1.2
		c0.2-0.8-0.3-1.7-1.1-1.9l-3.7-1l3.4-2c0.7-0.5,1-1.4,0.6-2.1c-0.5-0.7-1.4-1-2.1-0.6l-3.4,2l1-3.7c0.2-0.8-0.3-1.7-1.1-1.9
		c-0.8-0.2-1.7,0.3-1.9,1.1l-1.8,6.8l-2.6,1.5l-2.4-1.4v-3l5-5c0.6-0.6,0.6-1.6,0-2.3s-1.6-0.6-2.3,0l-2.7,2.7v-4
		c0-0.8-0.7-1.6-1.6-1.6s-1.6,0.7-1.6,1.6v4l-2.7-2.7c-0.6-0.6-1.6-0.6-2.3,0s-0.6,1.6,0,2.3l5,5v3l-2.4,1.4l-2.6-1.5l-1.8-6.8
		c-0.2-0.8-1.1-1.4-1.9-1.1c-0.8,0.2-1.4,1.1-1.1,1.9l1,3.7l-3.4-2c-0.7-0.5-1.7-0.2-2.1,0.6c-0.5,0.7-0.2,1.7,0.6,2.1l3.4,2l-3.7,1
		c-0.8,0.2-1.4,1.1-1.1,1.9c0.2,0.7,0.8,1.2,1.5,1.2c0.1,0,0.3,0,0.4-0.1l6.8-1.8l2.6,1.5v2.8l-2.6,1.5l-6.8-1.8
		c-0.8-0.2-1.7,0.3-1.9,1.1c-0.2,0.8,0.3,1.7,1.1,1.9l3.7,1l-3.4,2c-0.7,0.5-1,1.4-0.6,2.1c0.3,0.5,0.8,0.8,1.4,0.8
		c0.3,0,0.6-0.1,0.8-0.2l3.4-2l-1,3.7c-0.2,0.8,0.3,1.7,1.1,1.9c0.1,0.1,0.3,0.1,0.4,0.1c0.7,0,1.4-0.5,1.5-1.2l1.8-6.8l2.6-1.5
		l2.4,1.4v3l-5,5c-0.6,0.6-0.6,1.6,0,2.3c0.3,0.3,0.7,0.5,1.1,0.5s0.8-0.2,1.1-0.5l2.7-2.7v4c0,0.8,0.7,1.6,1.6,1.6s1.6-0.7,1.6-1.6
		v-4l2.7,2.7c0.3,0.3,0.7,0.5,1.1,0.5c0.4,0,0.8-0.2,1.1-0.5c0.6-0.6,0.6-1.6,0-2.3l-5-5v-3l2.4-1.4l2.6,1.5l1.8,6.8
		c0.2,0.7,0.8,1.2,1.5,1.2c0.1,0,0.3,0,0.4-0.1c0.8-0.2,1.4-1.1,1.1-1.9l-1-3.7l3.4,2c0.2,0.2,0.5,0.2,0.8,0.2
		c0.6,0,1.1-0.3,1.4-0.8c0.5-0.7,0.2-1.7-0.6-2.1l-3.4-2l3.7-1c0.8-0.2,1.4-1.1,1.1-1.9C298.1,769.3,297.2,768.8,296.4,769z
		 M283.8,769.3l-2.4,1.4l-2.4-1.4v-2.8l2.4-1.4l2.4,1.4V769.3z"/>
</g>
<g class="st8">
	<path class="st2" d="M487.9,363.5l-0.9,0.2l-0.3-0.2v-0.4l0.3-0.2l0.9,0.2h0.1c0.1,0,0.2-0.1,0.2-0.2c0.1-0.1-0.1-0.2-0.2-0.3
		l-0.5-0.1l0.5-0.3c0.1-0.1,0.1-0.2,0.1-0.3c-0.1-0.1-0.2-0.1-0.3-0.1l-0.5,0.3l0.1-0.5c0.1-0.1-0.1-0.2-0.2-0.3
		c-0.1-0.1-0.2,0.1-0.3,0.2l-0.2,0.9l-0.2,0.2l-0.3-0.2v-0.4l0.7-0.7c0.1-0.1,0.1-0.2,0-0.3c-0.1-0.1-0.2-0.1-0.3,0l-0.3,0.3V361
		c0-0.1-0.1-0.2-0.2-0.2c-0.1,0-0.2,0.1-0.2,0.2v0.5l-0.3-0.3c-0.1-0.1-0.2-0.1-0.3,0c-0.1,0.1-0.1,0.2,0,0.3l0.7,0.7v0.4l-0.3,0.2
		l-0.3-0.2l-0.2-0.9c-0.1-0.1-0.2-0.2-0.3-0.2c-0.1,0.1-0.2,0.2-0.2,0.3l0.1,0.5l-0.5-0.3c-0.1-0.1-0.2,0-0.3,0.1
		c-0.1,0.1,0,0.2,0.1,0.3l0.5,0.3l-0.5,0.1c-0.1,0.1-0.2,0.2-0.2,0.3c0,0.1,0.1,0.2,0.2,0.2h0.1l0.9-0.2l0.3,0.2v0.4l-0.3,0.2
		l-0.9-0.2c-0.1-0.1-0.2,0.1-0.3,0.2c-0.1,0.1,0.1,0.2,0.2,0.3l0.5,0.1l-0.5,0.3c-0.1,0.1-0.1,0.2-0.1,0.3c0.1,0.1,0.1,0.1,0.2,0.1
		c0.1,0,0.1,0,0.1-0.1l0.5-0.3l-0.1,0.5c-0.1,0.1,0.1,0.2,0.2,0.3h0.1c0.1,0,0.2-0.1,0.2-0.2l0.2-0.9l0.3-0.2l0.3,0.2v0.4l-0.7,0.7
		c-0.1,0.1-0.1,0.2,0,0.3c0.1,0.1,0.1,0.1,0.2,0.1s0.1,0,0.2-0.1l0.3-0.3v0.5c0,0.1,0.1,0.2,0.2,0.2s0.2-0.1,0.2-0.2V365l0.3,0.3
		c0.1,0.1,0.1,0.1,0.2,0.1s0.1,0,0.2-0.1c0.1-0.1,0.1-0.2,0-0.3l-0.7-0.7V364l0.3-0.2l0.3,0.2l0.2,0.9c0,0.1,0.1,0.2,0.2,0.2h0.1
		c0.1-0.1,0.2-0.2,0.2-0.3l-0.1-0.5l0.5,0.3c0.1,0,0.1,0.1,0.1,0.1c0.1,0,0.2-0.1,0.2-0.1c0.1-0.1,0-0.2-0.1-0.3l-0.5-0.3l0.5-0.1
		c0.1-0.1,0.2-0.2,0.2-0.3C488.1,363.5,488,363.4,487.9,363.5z M486.2,363.5l-0.3,0.2l-0.3-0.2v-0.4l0.3-0.2l0.3,0.2V363.5z"/>
</g>
<g class="st8">
	<path class="st2" d="M321.2,672.3l-3.7,1l-1.4-0.8v-1.5l1.4-0.8l3.7,1c0.1,0,0.2,0.1,0.2,0.1c0.4,0,0.7-0.3,0.8-0.6
		c0.1-0.5-0.2-1-0.6-1.1l-2-0.6l1.9-1.1c0.4-0.2,0.6-0.8,0.3-1.2s-0.8-0.6-1.2-0.3l-1.9,1.1l0.6-2c0.1-0.5-0.2-1-0.6-1.1
		c-0.5-0.1-1,0.2-1.1,0.6l-1,3.7l-1.4,0.8l-1.4-0.8V667l2.7-2.7c0.3-0.3,0.3-0.9,0-1.2c-0.3-0.3-0.9-0.3-1.2,0l-1.5,1.5v-2.1
		c0-0.5-0.4-0.8-0.8-0.8c-0.5,0-0.8,0.4-0.8,0.8v2.1l-1.5-1.5c-0.3-0.3-0.9-0.3-1.2,0c-0.3,0.3-0.3,0.9,0,1.2l2.7,2.7v1.6l-1.4,0.8
		l-1.4-0.8l-1-3.7c-0.1-0.5-0.6-0.7-1.1-0.6c-0.5,0.1-0.7,0.6-0.6,1.1l0.6,2l-1.9-1.1c-0.4-0.2-1-0.1-1.2,0.3
		c-0.2,0.4-0.1,1,0.3,1.2l1.9,1.1l-2,0.6c-0.5,0.1-0.7,0.6-0.6,1.1c0.1,0.4,0.5,0.6,0.8,0.6c0.1,0,0.2,0,0.2-0.1l3.7-1l1.4,0.8v1.5
		l-1.4,0.8l-3.7-1c-0.5-0.1-1,0.2-1.1,0.6c-0.1,0.5,0.2,1,0.6,1.1l2,0.6l-1.9,1.1c-0.4,0.2-0.6,0.8-0.3,1.2c0.2,0.3,0.5,0.5,0.7,0.5
		c0.2,0,0.3-0.1,0.5-0.1l1.9-1.1l-0.6,2c-0.1,0.5,0.2,1,0.6,1.1c0.1,0,0.2,0.1,0.2,0.1c0.4,0,0.7-0.3,0.8-0.6l1-3.7l1.4-0.8l1.4,0.8
		v1.7l-2.7,2.7c-0.3,0.3-0.3,0.9,0,1.2c0.2,0.2,0.4,0.2,0.6,0.2s0.5-0.1,0.6-0.2l1.5-1.5v2.1c0,0.5,0.4,0.8,0.8,0.8
		c0.5,0,0.8-0.4,0.8-0.8v-2.1l1.5,1.5c0.2,0.2,0.4,0.2,0.6,0.2s0.5-0.1,0.6-0.2c0.3-0.3,0.3-0.9,0-1.2l-2.7-2.7v-1.6l1.4-0.8
		l1.4,0.8l1,3.7c0.1,0.4,0.5,0.6,0.8,0.6c0.1,0,0.2,0,0.2-0.1c0.5-0.1,0.7-0.6,0.6-1.1l-0.6-2l1.9,1.1c0.1,0.1,0.3,0.1,0.5,0.1
		c0.3,0,0.6-0.2,0.7-0.5c0.2-0.4,0.1-1-0.3-1.2l-1.9-1.1l2-0.6c0.5-0.1,0.7-0.6,0.6-1.1C322.2,672.4,321.7,672.1,321.2,672.3z
		 M314.4,672.5l-1.4,0.8l-1.4-0.8v-1.5l1.4-0.8l1.4,0.8V672.5z"/>
</g>
<g class="st8">
	<path class="st2" d="M407.5,734.4l-3.4,0.9l-1.3-0.7v-1.4l1.3-0.7l3.4,0.9c0.1,0,0.1,0,0.2,0c0.3,0,0.7-0.2,0.7-0.6
		c0.1-0.4-0.1-0.8-0.6-1l-1.9-0.5l1.7-1c0.4-0.2,0.5-0.7,0.3-1.1c-0.2-0.4-0.7-0.5-1.1-0.3l-1.7,1l0.5-1.9c0.1-0.4-0.1-0.8-0.6-1
		c-0.4-0.1-0.8,0.1-1,0.6l-0.9,3.4l-1.3,0.7l-1.2-0.7v-1.5l2.5-2.5c0.3-0.3,0.3-0.8,0-1.1c-0.3-0.3-0.8-0.3-1.1,0l-1.4,1.4v-2
		c0-0.5-0.3-0.8-0.8-0.8s-0.8,0.3-0.8,0.8v2l-1.4-1.4c-0.3-0.3-0.8-0.3-1.1,0c-0.3,0.3-0.3,0.8,0,1.1l2.5,2.5v1.5l-1.2,0.7l-1.3-0.7
		l-0.9-3.4c-0.1-0.4-0.6-0.7-1-0.6c-0.4,0.1-0.7,0.6-0.6,1l0.5,1.9l-1.7-1c-0.4-0.2-0.8-0.1-1.1,0.3c-0.2,0.4-0.1,0.8,0.3,1.1l1.7,1
		l-1.9,0.5c-0.4,0.1-0.7,0.6-0.6,1c0.1,0.3,0.4,0.6,0.7,0.6c0.1,0,0.1,0,0.2,0l3.4-0.9l1.3,0.7v1.4l-1.3,0.7l-3.4-0.9
		c-0.4-0.1-0.8,0.1-1,0.6c-0.1,0.4,0.1,0.8,0.6,1l1.9,0.5l-1.7,1c-0.4,0.2-0.5,0.7-0.3,1.1c0.2,0.2,0.4,0.4,0.7,0.4
		c0.1,0,0.3-0.1,0.4-0.1l1.7-1l-0.5,1.9c-0.1,0.4,0.1,0.8,0.6,1c0.1,0,0.1,0,0.2,0c0.3,0,0.7-0.2,0.7-0.6l0.9-3.4l1.3-0.7l1.2,0.7
		v1.5l-2.5,2.5c-0.3,0.3-0.3,0.8,0,1.1c0.2,0.2,0.3,0.2,0.6,0.2c0.2,0,0.4-0.1,0.6-0.2l1.4-1.4v2c0,0.5,0.3,0.8,0.8,0.8
		c0.5,0,0.8-0.3,0.8-0.8v-2l1.4,1.4c0.2,0.2,0.3,0.2,0.6,0.2s0.4-0.1,0.6-0.2c0.3-0.3,0.3-0.8,0-1.1l-2.5-2.5v-1.5l1.2-0.7l1.3,0.7
		l0.9,3.4c0.1,0.3,0.4,0.6,0.7,0.6c0.1,0,0.1,0,0.2,0c0.4-0.1,0.7-0.6,0.6-1l-0.5-1.9l1.7,1c0.1,0.1,0.3,0.1,0.4,0.1
		c0.3,0,0.6-0.1,0.7-0.4c0.2-0.4,0.1-0.8-0.3-1.1l-1.7-1l1.9-0.5c0.4-0.1,0.7-0.6,0.6-1C408.4,734.5,407.9,734.2,407.5,734.4z
		 M401.3,734.5l-1.2,0.7l-1.2-0.7v-1.4l1.2-0.7l1.2,0.7V734.5z"/>
</g>
<g class="st7">
	<g>
		<g>
			<path class="st2" d="M344.1,568l-1.5-1.5l1.5-1.5c0.5-0.5,0.5-1.2,0-1.6c-0.5-0.5-1.2-0.5-1.6,0l-2,2h-3.2
				c-0.1-0.1-0.1-0.2-0.1-0.3l2.3-2.3h2.8c0.6,0,1.2-0.5,1.2-1.2c0-0.6-0.5-1.2-1.2-1.2h-2.1v-2.1c0-0.6-0.5-1.2-1.2-1.2
				c-0.7,0-1.1,0.5-1.1,1.2v2.8l-2.3,2.3c-0.1-0.1-0.2-0.1-0.3-0.1V560l2-2c0.5-0.5,0.5-1.2,0-1.6c-0.5-0.5-1.2-0.5-1.6,0l-1.5,1.5
				l-1.5-1.5c-0.5-0.5-1.2-0.5-1.6,0c-0.5,0.5-0.5,1.2,0,1.6l2,2v3.2c-0.1,0.1-0.2,0.1-0.3,0.1l-2.3-2.3v-2.8c0-0.6-0.5-1.2-1.2-1.2
				c-0.7,0-1.1,0.5-1.1,1.2v2.1h-2.1c-0.6,0-1.2,0.5-1.2,1.2c0,0.7,0.5,1.2,1.2,1.2h2.8l2.3,2.3c-0.1,0.1-0.1,0.2-0.1,0.3h-3.2l-2-2
				c-0.5-0.5-1.2-0.5-1.6,0c-0.5,0.5-0.5,1.2,0,1.6l1.5,1.5l-1.5,1.5c-0.5,0.5-0.5,1.2,0,1.6c0.5,0.5,1.2,0.5,1.6,0l2-2h3.2
				c0.1,0.1,0.1,0.2,0.1,0.3l-2.3,2.3h-2.8c-0.6,0-1.2,0.5-1.2,1.2c0,0.6,0.5,1.2,1.2,1.2h2.1v2.1c0,0.6,0.5,1.2,1.1,1.2
				s1.2-0.5,1.2-1.2v-2.8l2.3-2.3c0.1,0.1,0.2,0.1,0.3,0.1v3.2l-2,2c-0.5,0.5-0.5,1.2,0,1.6c0.5,0.5,1.2,0.5,1.6,0l1.5-1.5l1.5,1.5
				c0.5,0.5,1.2,0.5,1.6,0c0.5-0.5,0.5-1.2,0-1.6l-2-2v-3.2c0.1-0.1,0.2-0.1,0.3-0.1l2.3,2.3v2.8c0,0.6,0.5,1.2,1.1,1.2
				s1.2-0.5,1.2-1.2v-2.1h2.1c0.6,0,1.2-0.5,1.2-1.2c0-0.6-0.5-1.2-1.2-1.2h-2.8l-2.3-2.3c0.1-0.1,0.1-0.2,0.1-0.3h3.2l2,2
				c0.5,0.5,1.2,0.5,1.6,0C344.7,569.2,344.6,568.4,344.1,568z M334,567.6c-0.6,0-1.2-0.5-1.2-1.2c0-0.7,0.5-1.2,1.2-1.2
				s1.2,0.5,1.2,1.2C335.2,567.1,334.7,567.6,334,567.6z"/>
		</g>
	</g>
	<g>
		<g>
			<path class="st2" d="M341,544.5h-3.7c-0.2-0.4-0.3-0.8-0.6-1.1l1.9-3.2c0.3-0.6,0.1-1.2-0.5-1.6s-1.2-0.1-1.6,0.5l-1.9,3.2
				c-0.2-0.1-0.4-0.1-0.6-0.1s-0.5,0-0.6,0.1l-1.9-3.2c-0.3-0.6-1-0.7-1.6-0.5c-0.6,0.3-0.7,1-0.5,1.6l1.9,3.2
				c-0.3,0.3-0.5,0.7-0.6,1.1h-3.7c-0.6,0-1.2,0.5-1.2,1.2c0,0.6,0.5,1.2,1.2,1.2h3.7c0.2,0.4,0.3,0.8,0.6,1.1l-1.9,3.2
				c-0.3,0.6-0.1,1.2,0.5,1.6c0.6,0.3,1.2,0.1,1.6-0.5l1.9-3.2c0.2,0.1,0.4,0.1,0.6,0.1s0.5,0,0.6-0.1l1.9,3.2
				c0.3,0.6,1,0.7,1.6,0.5c0.6-0.3,0.7-1,0.5-1.6l-1.9-3.2c0.3-0.3,0.5-0.7,0.6-1.1h3.7c0.6,0,1.2-0.5,1.2-1.2
				C342.1,545,341.6,544.5,341,544.5z M334,546.8c-0.6,0-1.2-0.5-1.2-1.2s0.5-1.2,1.2-1.2s1.2,0.5,1.2,1.2S334.7,546.8,334,546.8z"
				/>
		</g>
	</g>
	<g>
		<g>
			<path class="st2" d="M359.6,551.4H356c-0.2-0.4-0.3-0.8-0.6-1.1l1.9-3.2c0.3-0.6,0.1-1.2-0.5-1.6c-0.6-0.3-1.2-0.1-1.6,0.5
				l-1.9,3.2c-0.2-0.1-0.4-0.1-0.6-0.1s-0.5,0-0.6,0.1l-1.9-3.2c-0.3-0.6-1-0.7-1.6-0.5c-0.6,0.3-0.7,1-0.5,1.6l1.9,3.2
				c-0.3,0.3-0.5,0.7-0.6,1.1h-3.7l0,0c-0.6,0-1.2,0.5-1.2,1.2c0,0.6,0.5,1.2,1.2,1.2h3.7c0.2,0.4,0.3,0.8,0.6,1.1l-1.9,3.2
				c-0.3,0.6-0.1,1.2,0.5,1.6s1.2,0.1,1.6-0.5l1.9-3.2c0.2,0.1,0.4,0.1,0.6,0.1s0.5,0,0.6-0.1l1.9,3.2c0.3,0.6,1,0.7,1.6,0.5
				c0.6-0.3,0.7-1,0.5-1.6l-1.9-3.2c0.3-0.3,0.5-0.7,0.6-1.1h3.7c0.6,0,1.2-0.5,1.2-1.2C360.8,551.9,360.3,551.4,359.6,551.4z
				 M352.7,553.7c-0.6,0-1.2-0.5-1.2-1.2c0-0.6,0.5-1.2,1.2-1.2c0.6,0,1.2,0.5,1.2,1.2S353.4,553.7,352.7,553.7z"/>
		</g>
	</g>
	<g>
		<g>
			<circle class="st2" cx="361.9" cy="561.9" r="1.2"/>
		</g>
	</g>
	<g>
		<g>
			<circle class="st2" cx="345.7" cy="541" r="1.2"/>
		</g>
	</g>
	<g>
		<g>
			<path class="st2" d="M355,567.6h-1.2v-1.2c0-0.6-0.5-1.2-1.2-1.2c-0.6,0-1.2,0.5-1.2,1.2v1.2h-1.2c-0.6,0-1.2,0.5-1.2,1.2
				c0,0.6,0.5,1.2,1.2,1.2h1.2v1.2c0,0.6,0.5,1.2,1.2,1.2c0.6,0,1.2-0.5,1.2-1.2V570h1.2c0.6,0,1.2-0.5,1.2-1.2
				C356.2,568.2,355.7,567.6,355,567.6z"/>
		</g>
	</g>
</g>
<g class="st8">
	<g>
		<g>
			<path class="st2" d="M170.4,626.9l-0.5-0.5l0.5-0.5c0.2-0.1,0.2-0.4,0-0.5c-0.1-0.2-0.4-0.2-0.5,0l-0.6,0.6h-1
				c0-0.1,0-0.1-0.1-0.1l0.7-0.7h0.8c0.2,0,0.3-0.2,0.3-0.3c0-0.2-0.2-0.3-0.3-0.3h-0.7v-0.7c0-0.2-0.2-0.3-0.3-0.3
				s-0.3,0.2-0.3,0.3v0.8l-0.7,0.7c-0.1,0-0.1-0.1-0.1-0.1v-1l0.6-0.6c0.1-0.1,0.1-0.4,0-0.5c-0.1-0.1-0.4-0.1-0.5,0l-0.5,0.5
				l-0.5-0.5c-0.1-0.1-0.4-0.1-0.5,0c-0.1,0.2-0.1,0.4,0,0.5l0.6,0.6v1c-0.1,0-0.1,0-0.1,0.1l-0.7-0.7v-0.8c0-0.2-0.2-0.3-0.3-0.3
				c-0.2,0-0.3,0.2-0.3,0.3v0.7h-0.7c-0.2,0-0.3,0.2-0.3,0.3c0,0.2,0.2,0.3,0.3,0.3h0.8l0.7,0.7c0,0.1-0.1,0.1-0.1,0.1h-1l-0.6-0.6
				c-0.1-0.2-0.4-0.2-0.5,0c-0.1,0.1-0.1,0.4,0,0.5l0.5,0.5l-0.5,0.5c-0.2,0.2-0.2,0.4,0,0.5c0.1,0.1,0.4,0.1,0.5,0l0.6-0.6h1
				c0,0.1,0,0.1,0.1,0.1l-0.7,0.7h-0.8c-0.2,0-0.3,0.2-0.3,0.3s0.2,0.3,0.3,0.3h0.7v0.7c0,0.2,0.2,0.3,0.3,0.3
				c0.2,0,0.3-0.2,0.3-0.3v-0.8l0.7-0.7c0.1,0,0.1,0.1,0.1,0.1v1l-0.6,0.6c-0.1,0.1-0.1,0.4,0,0.5c0.1,0.2,0.4,0.2,0.5,0l0.5-0.5
				l0.5,0.5c0.1,0.1,0.4,0.1,0.5,0c0.1-0.2,0.1-0.4,0-0.5l-0.6-0.6v-1c0.1,0,0.1,0,0.1-0.1l0.7,0.7v0.8c0,0.2,0.2,0.3,0.3,0.3
				s0.3-0.2,0.3-0.3v-0.7h0.7c0.2,0,0.3-0.2,0.3-0.3c0-0.2-0.2-0.3-0.3-0.3h-0.8l-0.7-0.7c0-0.1,0.1-0.1,0.1-0.1h1l0.6,0.6
				c0.2,0.1,0.4,0.1,0.5,0C170.5,627.2,170.5,627,170.4,626.9z M167.2,626.8c-0.2,0-0.3-0.2-0.3-0.3c0-0.2,0.2-0.3,0.3-0.3
				c0.2,0,0.3,0.2,0.3,0.3C167.6,626.6,167.4,626.8,167.2,626.8z"/>
		</g>
	</g>
	<g>
		<g>
			<path class="st2" d="M169.4,619.5h-1.1c-0.1-0.1-0.1-0.2-0.2-0.3l0.6-1c0.1-0.2,0.1-0.4-0.1-0.5c-0.2-0.1-0.4-0.1-0.5,0.1l-0.6,1
				c-0.1,0-0.1,0-0.2,0c-0.1,0-0.1,0-0.2,0l-0.6-1c-0.1-0.2-0.3-0.2-0.5-0.1c-0.2,0.1-0.2,0.3-0.1,0.5l0.6,1
				c-0.1,0.1-0.2,0.2-0.2,0.3H165c-0.2,0-0.3,0.2-0.3,0.3c0,0.2,0.2,0.3,0.3,0.3h1.1c0.1,0.1,0.1,0.2,0.2,0.3l-0.6,1
				c-0.1,0.2-0.1,0.4,0.1,0.5c0.2,0.1,0.4,0.1,0.5-0.1l0.6-1c0.1,0,0.1,0,0.2,0c0.1,0,0.1,0,0.2,0l0.6,1c0.1,0.2,0.3,0.2,0.5,0.1
				c0.2-0.1,0.2-0.3,0.1-0.5l-0.6-1c0.1-0.1,0.2-0.2,0.2-0.3h1.1c0.2,0,0.3-0.2,0.3-0.3S169.6,619.5,169.4,619.5z M167.2,620.3
				c-0.2,0-0.3-0.2-0.3-0.3s0.2-0.3,0.3-0.3c0.2,0,0.3,0.2,0.3,0.3S167.4,620.3,167.2,620.3z"/>
		</g>
	</g>
	<g>
		<g>
			<path class="st2" d="M175.2,621.7h-1.1c-0.1-0.1-0.1-0.2-0.2-0.3l0.6-1c0.1-0.2,0.1-0.4-0.1-0.5c-0.2-0.1-0.4-0.1-0.5,0.1l-0.6,1
				c-0.1,0-0.1,0-0.2,0c-0.1,0-0.1,0-0.2,0l-0.6-1c-0.1-0.2-0.3-0.2-0.5-0.1s-0.2,0.3-0.1,0.5l0.6,1c-0.1,0.1-0.2,0.2-0.2,0.3h-1.1
				l0,0c-0.2,0-0.3,0.2-0.3,0.3c0,0.2,0.2,0.3,0.3,0.3h1.1c0.1,0.1,0.1,0.2,0.2,0.3l-0.6,1c-0.1,0.2-0.1,0.4,0.1,0.5
				c0.2,0.1,0.4,0.1,0.5-0.1l0.6-1c0.1,0,0.1,0,0.2,0c0.1,0,0.1,0,0.2,0l0.6,1c0.1,0.2,0.3,0.2,0.5,0.1c0.2-0.1,0.2-0.3,0.1-0.5
				l-0.6-1c0.1-0.1,0.2-0.2,0.2-0.3h1.1c0.2,0,0.3-0.2,0.3-0.3C175.6,621.8,175.4,621.7,175.2,621.7z M173,622.4
				c-0.2,0-0.3-0.2-0.3-0.3c0-0.2,0.2-0.3,0.3-0.3c0.2,0,0.3,0.2,0.3,0.3C173.4,622.2,173.2,622.4,173,622.4z"/>
		</g>
	</g>
	<g>
		<g>
			<circle class="st2" cx="175.9" cy="625" r="0.3"/>
		</g>
	</g>
	<g>
		<g>
			<circle class="st2" cx="170.8" cy="618.5" r="0.3"/>
		</g>
	</g>
	<g>
		<g>
			<path class="st2" d="M173.8,626.8h-0.3v-0.3c0-0.2-0.2-0.3-0.3-0.3c-0.2,0-0.3,0.2-0.3,0.3v0.3h-0.3c-0.2,0-0.3,0.2-0.3,0.3
				c0,0.2,0.2,0.3,0.3,0.3h0.3v0.3c0,0.2,0.2,0.3,0.3,0.3c0.2,0,0.3-0.2,0.3-0.3v-0.3h0.3c0.2,0,0.3-0.2,0.3-0.3
				S173.9,626.8,173.8,626.8z"/>
		</g>
	</g>
</g>
<g class="st8">
	<g>
		<g>
			<path class="st2" d="M443.7,491l-1.5-1.5l1.5-1.5c0.5-0.5,0.5-1.2,0-1.6c-0.5-0.5-1.2-0.5-1.6,0l-2,2h-3.2
				c-0.1-0.1-0.1-0.2-0.1-0.3l2.3-2.3h2.8c0.6,0,1.2-0.5,1.2-1.2c0-0.6-0.5-1.2-1.2-1.2h-2.1v-2.1c0-0.6-0.5-1.2-1.2-1.2
				s-1.1,0.5-1.1,1.2v2.8l-2.3,2.3c-0.1-0.1-0.2-0.1-0.3-0.1v-3.2l2-2c0.5-0.5,0.5-1.2,0-1.6c-0.5-0.5-1.2-0.5-1.6,0l-1.5,1.5
				l-1.5-1.5c-0.5-0.5-1.2-0.5-1.6,0c-0.5,0.5-0.5,1.2,0,1.6l2,2v3.2c-0.1,0.1-0.2,0.1-0.3,0.1l-2.3-2.3v-2.8c0-0.6-0.5-1.2-1.2-1.2
				s-1.1,0.5-1.1,1.2v2.1h-2.1c-0.6,0-1.2,0.5-1.2,1.2s0.5,1.2,1.2,1.2h2.8l2.3,2.3c-0.1,0.1-0.1,0.2-0.1,0.3h-3.2l-2-2
				c-0.5-0.5-1.2-0.5-1.6,0c-0.5,0.5-0.5,1.2,0,1.6l1.5,1.5l-1.5,1.5c-0.5,0.5-0.5,1.2,0,1.6c0.5,0.5,1.2,0.5,1.6,0l2-2h3.2
				c0.1,0.1,0.1,0.2,0.1,0.3l-2.3,2.3h-2.8c-0.6,0-1.2,0.5-1.2,1.2c0,0.6,0.5,1.2,1.2,1.2h2.1v2.1c0,0.6,0.5,1.2,1.1,1.2
				c0.6,0,1.2-0.5,1.2-1.2V495l2.3-2.3c0.1,0.1,0.2,0.1,0.3,0.1v3.2l-2,2c-0.5,0.5-0.5,1.2,0,1.6c0.5,0.5,1.2,0.5,1.6,0l1.5-1.5
				l1.5,1.5c0.5,0.5,1.2,0.5,1.6,0c0.5-0.5,0.5-1.2,0-1.6l-2-2v-3.2c0.1-0.1,0.2-0.1,0.3-0.1l2.3,2.3v2.8c0,0.6,0.5,1.2,1.1,1.2
				c0.6,0,1.2-0.5,1.2-1.2v-2.1h2.1c0.6,0,1.2-0.5,1.2-1.2c0-0.6-0.5-1.2-1.2-1.2h-2.8l-2.3-2.3c0.1-0.1,0.1-0.2,0.1-0.3h3.2l2,2
				c0.5,0.5,1.2,0.5,1.6,0C444.3,492.2,444.2,491.5,443.7,491z M433.6,490.7c-0.6,0-1.2-0.5-1.2-1.2s0.5-1.2,1.2-1.2
				c0.7,0,1.2,0.5,1.2,1.2S434.3,490.7,433.6,490.7z"/>
		</g>
	</g>
	<g>
		<g>
			<path class="st2" d="M440.6,467.5h-3.7c-0.2-0.4-0.3-0.8-0.6-1.1l1.9-3.2c0.3-0.6,0.1-1.2-0.5-1.6c-0.6-0.3-1.2-0.1-1.6,0.5
				l-1.9,3.2c-0.2-0.1-0.4-0.1-0.6-0.1c-0.2,0-0.5,0-0.6,0.1l-1.9-3.2c-0.3-0.6-1-0.7-1.6-0.5c-0.6,0.3-0.7,1-0.5,1.6l1.9,3.2
				c-0.3,0.3-0.5,0.7-0.6,1.1h-3.7c-0.6,0-1.2,0.5-1.2,1.2c0,0.6,0.5,1.2,1.2,1.2h3.7c0.2,0.4,0.3,0.8,0.6,1.1l-1.9,3.2
				c-0.3,0.6-0.1,1.2,0.5,1.6c0.6,0.3,1.2,0.1,1.6-0.5l1.9-3.2c0.2,0.1,0.4,0.1,0.6,0.1c0.2,0,0.5,0,0.6-0.1l1.9,3.2
				c0.3,0.6,1,0.7,1.6,0.5c0.6-0.3,0.7-1,0.5-1.6l-1.9-3.2c0.3-0.3,0.5-0.7,0.6-1.1h3.7c0.6,0,1.2-0.5,1.2-1.2
				C441.7,468.1,441.2,467.5,440.6,467.5z M433.6,469.9c-0.6,0-1.2-0.5-1.2-1.2c0-0.7,0.5-1.2,1.2-1.2c0.7,0,1.2,0.5,1.2,1.2
				C434.8,469.4,434.3,469.9,433.6,469.9z"/>
		</g>
	</g>
	<g>
		<g>
			<path class="st2" d="M459.2,474.5h-3.7c-0.2-0.4-0.3-0.8-0.6-1.1l1.9-3.2c0.3-0.6,0.1-1.2-0.5-1.6c-0.6-0.3-1.2-0.1-1.6,0.5
				l-1.9,3.2c-0.2-0.1-0.4-0.1-0.6-0.1s-0.5,0-0.6,0.1l-1.9-3.2c-0.3-0.6-1-0.7-1.6-0.5c-0.6,0.3-0.7,1-0.5,1.6l1.9,3.2
				c-0.3,0.3-0.5,0.7-0.6,1.1h-3.7l0,0c-0.6,0-1.2,0.5-1.2,1.2c0,0.6,0.5,1.2,1.2,1.2h3.7c0.2,0.4,0.3,0.8,0.6,1.1l-1.9,3.2
				c-0.3,0.6-0.1,1.2,0.5,1.6c0.6,0.3,1.2,0.1,1.6-0.5l1.9-3.2c0.2,0.1,0.4,0.1,0.6,0.1s0.5,0,0.6-0.1l1.9,3.2
				c0.3,0.6,1,0.7,1.6,0.5c0.6-0.3,0.7-1,0.5-1.6l-1.9-3.2c0.3-0.3,0.5-0.7,0.6-1.1h3.7c0.6,0,1.2-0.5,1.2-1.2
				C460.4,475,459.9,474.5,459.2,474.5z M452.3,476.8c-0.6,0-1.2-0.5-1.2-1.2c0-0.6,0.5-1.2,1.2-1.2c0.6,0,1.2,0.5,1.2,1.2
				C453.5,476.3,452.9,476.8,452.3,476.8z"/>
		</g>
	</g>
	<g>
		<g>
			<circle class="st2" cx="461.5" cy="484.9" r="1.2"/>
		</g>
	</g>
	<g>
		<g>
			<circle class="st2" cx="445.3" cy="464.1" r="1.2"/>
		</g>
	</g>
	<g>
		<g>
			<path class="st2" d="M454.6,490.7h-1.2v-1.2c0-0.6-0.5-1.2-1.2-1.2c-0.6,0-1.2,0.5-1.2,1.2v1.2h-1.2c-0.6,0-1.2,0.5-1.2,1.2
				c0,0.6,0.5,1.2,1.2,1.2h1.2v1.2c0,0.6,0.5,1.2,1.2,1.2c0.6,0,1.2-0.5,1.2-1.2v-1.2h1.2c0.6,0,1.2-0.5,1.2-1.2
				C455.8,491.3,455.3,490.7,454.6,490.7z"/>
		</g>
	</g>
</g>
<g class="st8">
	<g>
		<g>
			<path class="st2" d="M442.2,540l-0.7-0.7l0.7-0.7c0.2-0.2,0.2-0.6,0-0.8c-0.2-0.2-0.6-0.2-0.8,0l-1,1h-1.6c0-0.1-0.1-0.1-0.1-0.2
				l1.1-1.1h1.4c0.3,0,0.6-0.2,0.6-0.6c0-0.3-0.2-0.6-0.6-0.6h-1v-1c0-0.3-0.2-0.6-0.6-0.6s-0.6,0.2-0.6,0.6v1.4l-1.1,1.1
				c-0.1,0-0.1-0.1-0.2-0.1v-1.5l1-1c0.2-0.2,0.2-0.6,0-0.8c-0.2-0.2-0.6-0.2-0.8,0l-0.7,0.7l-0.7-0.7c-0.2-0.2-0.6-0.2-0.8,0
				c-0.2,0.2-0.2,0.6,0,0.8l1,1v1.5c-0.1,0-0.1,0.1-0.2,0.1l-1.1-1.1v-1.4c0-0.3-0.2-0.6-0.6-0.6s-0.6,0.2-0.6,0.6v1h-1
				c-0.3,0-0.6,0.2-0.6,0.6s0.2,0.6,0.6,0.6h1.4l1.1,1.1c0,0.1-0.1,0.1-0.1,0.2h-1.5l-1-1c-0.2-0.2-0.6-0.2-0.8,0
				c-0.2,0.2-0.2,0.6,0,0.8l0.7,0.7l-0.7,0.7c-0.2,0.2-0.2,0.6,0,0.8c0.2,0.2,0.6,0.2,0.8,0l1-1h1.5c0,0.1,0.1,0.1,0.1,0.2l-1.1,1.1
				h-1.4c-0.3,0-0.6,0.2-0.6,0.6s0.2,0.6,0.6,0.6h1v1c0,0.3,0.2,0.6,0.6,0.6s0.6-0.2,0.6-0.6v-1.4l1.1-1.1c0.1,0,0.1,0.1,0.2,0.1
				v1.5l-1,1c-0.2,0.2-0.2,0.6,0,0.8c0.2,0.2,0.6,0.2,0.8,0l0.7-0.7l0.7,0.7c0.2,0.2,0.6,0.2,0.8,0c0.2-0.2,0.2-0.6,0-0.8l-1-1v-1.5
				c0.1,0,0.1-0.1,0.2-0.1l1.1,1.1v1.4c0,0.3,0.2,0.6,0.6,0.6s0.6-0.2,0.6-0.6v-1h1c0.3,0,0.6-0.2,0.6-0.6s-0.2-0.6-0.6-0.6h-1.4
				l-1.1-1.1c0-0.1,0.1-0.1,0.1-0.2h1.6l1,1c0.2,0.2,0.6,0.2,0.8,0C442.4,540.6,442.4,540.2,442.2,540z M437.3,539.8
				c-0.3,0-0.6-0.2-0.6-0.6s0.2-0.6,0.6-0.6s0.6,0.2,0.6,0.6S437.6,539.8,437.3,539.8z"/>
		</g>
	</g>
	<g>
		<g>
			<path class="st2" d="M440.6,528.5h-1.8c-0.1-0.2-0.2-0.4-0.3-0.5l0.9-1.5c0.2-0.3,0.1-0.6-0.2-0.8c-0.3-0.2-0.6-0.1-0.8,0.2
				l-0.9,1.5c-0.1,0-0.2-0.1-0.3-0.1c-0.1,0-0.2,0-0.3,0.1l-0.9-1.5c-0.2-0.3-0.5-0.3-0.8-0.2c-0.3,0.2-0.3,0.5-0.2,0.8l0.9,1.5
				c-0.1,0.2-0.2,0.3-0.3,0.5h-1.8c-0.3,0-0.6,0.2-0.6,0.6s0.2,0.6,0.6,0.6h1.8c0.1,0.2,0.2,0.4,0.3,0.5l-0.9,1.5
				c-0.2,0.3-0.1,0.6,0.2,0.8c0.3,0.2,0.6,0.1,0.8-0.2l0.9-1.5c0.1,0,0.2,0.1,0.3,0.1s0.2,0,0.3-0.1l0.9,1.5
				c0.2,0.3,0.5,0.3,0.8,0.2c0.3-0.2,0.3-0.5,0.2-0.8l-0.9-1.5c0.1-0.2,0.2-0.3,0.3-0.5h1.8c0.3,0,0.6-0.2,0.6-0.6
				C441.2,528.8,441,528.5,440.6,528.5z M437.3,529.7c-0.3,0-0.6-0.2-0.6-0.6s0.2-0.6,0.6-0.6s0.6,0.2,0.6,0.6
				S437.6,529.7,437.3,529.7z"/>
		</g>
	</g>
	<g>
		<g>
			<path class="st2" d="M449.7,531.9h-1.8c-0.1-0.2-0.2-0.4-0.3-0.5l0.9-1.5c0.2-0.3,0.1-0.6-0.2-0.8c-0.3-0.2-0.6-0.1-0.8,0.2
				l-0.9,1.5c-0.1,0-0.2-0.1-0.3-0.1c-0.1,0-0.2,0-0.3,0.1l-0.9-1.5c-0.2-0.3-0.5-0.3-0.8-0.2c-0.3,0.2-0.3,0.5-0.2,0.8l0.9,1.5
				c-0.1,0.2-0.2,0.3-0.3,0.5H443l0,0c-0.3,0-0.6,0.2-0.6,0.6s0.2,0.6,0.6,0.6h1.8c0.1,0.2,0.2,0.4,0.3,0.5l-0.9,1.5
				c-0.2,0.3-0.1,0.6,0.2,0.8c0.3,0.2,0.6,0.1,0.8-0.2l0.9-1.5c0.1,0,0.2,0.1,0.3,0.1c0.1,0,0.2,0,0.3-0.1l0.9,1.5
				c0.2,0.3,0.5,0.3,0.8,0.2c0.3-0.2,0.3-0.5,0.2-0.8l-0.9-1.5c0.1-0.2,0.2-0.3,0.3-0.5h1.8c0.3,0,0.6-0.2,0.6-0.6
				S450.1,531.9,449.7,531.9z M446.3,533.1c-0.3,0-0.6-0.2-0.6-0.6s0.2-0.6,0.6-0.6c0.3,0,0.6,0.2,0.6,0.6S446.7,533.1,446.3,533.1z
				"/>
		</g>
	</g>
	<g>
		<g>
			<circle class="st2" cx="450.9" cy="537" r="0.6"/>
		</g>
	</g>
	<g>
		<g>
			<circle class="st2" cx="443" cy="526.9" r="0.6"/>
		</g>
	</g>
	<g>
		<g>
			<path class="st2" d="M447.5,539.8h-0.6v-0.6c0-0.3-0.2-0.6-0.6-0.6c-0.3,0-0.6,0.2-0.6,0.6v0.6h-0.6c-0.3,0-0.6,0.2-0.6,0.6
				s0.2,0.6,0.6,0.6h0.6v0.6c0,0.3,0.2,0.6,0.6,0.6c0.3,0,0.6-0.2,0.6-0.6V541h0.6c0.3,0,0.6-0.2,0.6-0.6S447.8,539.8,447.5,539.8z"
				/>
		</g>
	</g>
</g>
<g class="st8">
	<g>
		<g>
			<path class="st2" d="M540.5,511.7l-0.7-0.7l0.7-0.7c0.2-0.2,0.2-0.6,0-0.8c-0.2-0.2-0.6-0.2-0.8,0l-1,1h-1.6
				c0-0.1-0.1-0.1-0.1-0.2l1.1-1.1h1.4c0.3,0,0.6-0.2,0.6-0.6c0-0.3-0.2-0.6-0.6-0.6h-1v-1c0-0.3-0.2-0.6-0.6-0.6s-0.6,0.2-0.6,0.6
				v1.4l-1.1,1.1c-0.1,0-0.1-0.1-0.2-0.1v-1.5l1-1c0.2-0.2,0.2-0.6,0-0.8c-0.2-0.2-0.6-0.2-0.8,0l-0.7,0.7l-0.7-0.7
				c-0.2-0.2-0.6-0.2-0.8,0c-0.2,0.2-0.2,0.6,0,0.8l1,1v1.5c-0.1,0-0.1,0.1-0.2,0.1l-1.1-1.1V507c0-0.3-0.2-0.6-0.6-0.6
				s-0.6,0.2-0.6,0.6v1h-1c-0.3,0-0.6,0.2-0.6,0.6c0,0.3,0.2,0.6,0.6,0.6h1.4l1.1,1.1c0,0.1-0.1,0.1-0.1,0.2h-1.5l-1-1
				c-0.2-0.2-0.6-0.2-0.8,0c-0.2,0.2-0.2,0.6,0,0.8l0.7,0.7l-0.7,0.7c-0.2,0.2-0.2,0.6,0,0.8c0.2,0.2,0.6,0.2,0.8,0l1-1h1.5
				c0,0.1,0.1,0.1,0.1,0.2l-1.1,1.1h-1.4c-0.3,0-0.6,0.2-0.6,0.6s0.2,0.6,0.6,0.6h1v1c0,0.3,0.2,0.6,0.6,0.6s0.6-0.2,0.6-0.6v-1.4
				l1.1-1.1c0.1,0,0.1,0.1,0.2,0.1v1.5l-1,1c-0.2,0.2-0.2,0.6,0,0.8c0.2,0.2,0.6,0.2,0.8,0l0.7-0.7l0.7,0.7c0.2,0.2,0.6,0.2,0.8,0
				c0.2-0.2,0.2-0.6,0-0.8l-1-1v-1.5c0.1,0,0.1-0.1,0.2-0.1l1.1,1.1v1.4c0,0.3,0.2,0.6,0.6,0.6s0.6-0.2,0.6-0.6v-1h1
				c0.3,0,0.6-0.2,0.6-0.6s-0.2-0.6-0.6-0.6h-1.4l-1.1-1.1c0-0.1,0.1-0.1,0.1-0.2h1.6l1,1c0.2,0.2,0.6,0.2,0.8,0
				C540.7,512.3,540.7,511.9,540.5,511.7z M535.6,511.6c-0.3,0-0.6-0.2-0.6-0.6c0-0.3,0.2-0.6,0.6-0.6s0.6,0.2,0.6,0.6
				C536.1,511.4,535.9,511.6,535.6,511.6z"/>
		</g>
	</g>
	<g>
		<g>
			<path class="st2" d="M538.9,500.3h-1.8c-0.1-0.2-0.2-0.4-0.3-0.5l0.9-1.5c0.2-0.3,0.1-0.6-0.2-0.8s-0.6-0.1-0.8,0.2l-0.9,1.5
				c-0.1,0-0.2-0.1-0.3-0.1s-0.2,0-0.3,0.1l-0.9-1.5c-0.2-0.3-0.5-0.3-0.8-0.2c-0.3,0.2-0.3,0.5-0.2,0.8l0.9,1.5
				c-0.1,0.2-0.2,0.3-0.3,0.5h-1.8c-0.3,0-0.6,0.2-0.6,0.6c0,0.3,0.2,0.6,0.6,0.6h1.8c0.1,0.2,0.2,0.4,0.3,0.5l-0.9,1.5
				c-0.2,0.3-0.1,0.6,0.2,0.8s0.6,0.1,0.8-0.2l0.9-1.5c0.1,0,0.2,0.1,0.3,0.1c0.1,0,0.2,0,0.3-0.1l0.9,1.5c0.2,0.3,0.5,0.3,0.8,0.2
				c0.3-0.2,0.3-0.5,0.2-0.8l-0.9-1.5c0.1-0.2,0.2-0.3,0.3-0.5h1.8c0.3,0,0.6-0.2,0.6-0.6C539.5,500.6,539.2,500.3,538.9,500.3z
				 M535.6,501.4c-0.3,0-0.6-0.2-0.6-0.6c0-0.3,0.2-0.6,0.6-0.6s0.6,0.2,0.6,0.6C536.1,501.2,535.9,501.4,535.6,501.4z"/>
		</g>
	</g>
	<g>
		<g>
			<path class="st2" d="M548,503.7h-1.8c-0.1-0.2-0.2-0.4-0.3-0.5l0.9-1.5c0.2-0.3,0.1-0.6-0.2-0.8s-0.6-0.1-0.8,0.2l-0.9,1.5
				c-0.1,0-0.2-0.1-0.3-0.1s-0.2,0-0.3,0.1l-0.9-1.5c-0.2-0.3-0.5-0.3-0.8-0.2c-0.3,0.2-0.3,0.5-0.2,0.8l0.9,1.5
				c-0.1,0.2-0.2,0.3-0.3,0.5h-1.8l0,0c-0.3,0-0.6,0.2-0.6,0.6c0,0.3,0.2,0.6,0.6,0.6h1.8c0.1,0.2,0.2,0.4,0.3,0.5l-0.9,1.5
				c-0.2,0.3-0.1,0.6,0.2,0.8s0.6,0.1,0.8-0.2l0.9-1.5c0.1,0,0.2,0.1,0.3,0.1s0.2,0,0.3-0.1l0.9,1.5c0.2,0.3,0.5,0.3,0.8,0.2
				c0.3-0.2,0.3-0.5,0.2-0.8l-0.9-1.5c0.1-0.2,0.2-0.3,0.3-0.5h1.8c0.3,0,0.6-0.2,0.6-0.6C548.6,503.9,548.3,503.7,548,503.7z
				 M544.6,504.8c-0.3,0-0.6-0.2-0.6-0.6c0-0.3,0.2-0.6,0.6-0.6c0.3,0,0.6,0.2,0.6,0.6C545.2,504.6,545,504.8,544.6,504.8z"/>
		</g>
	</g>
	<g>
		<g>
			<circle class="st2" cx="549.1" cy="508.8" r="0.6"/>
		</g>
	</g>
	<g>
		<g>
			<circle class="st2" cx="541.3" cy="498.7" r="0.6"/>
		</g>
	</g>
	<g>
		<g>
			<path class="st2" d="M545.7,511.6h-0.6V511c0-0.3-0.2-0.6-0.6-0.6s-0.6,0.2-0.6,0.6v0.6h-0.6c-0.3,0-0.6,0.2-0.6,0.6
				c0,0.3,0.2,0.6,0.6,0.6h0.6v0.6c0,0.3,0.2,0.6,0.6,0.6s0.6-0.2,0.6-0.6v-0.6h0.6c0.3,0,0.6-0.2,0.6-0.6
				C546.3,511.8,546.1,511.6,545.7,511.6z"/>
		</g>
	</g>
</g>
<g class="st8">
	<path class="st2" d="M765.6,400.3l-5.4,1.5l-2.1-1.2v-2.3l2-1.2l5.4,1.5c0.1,0.1,0.2,0.1,0.3,0.1c0.6,0,1.1-0.4,1.2-1
		c0.2-0.7-0.2-1.4-0.9-1.5l-3-0.8l2.8-1.6c0.6-0.3,0.8-1.1,0.5-1.8s-1.1-0.8-1.8-0.5l-2.8,1.6l0.8-3c0.2-0.7-0.2-1.4-0.9-1.5
		s-1.4,0.2-1.5,0.9l-1.5,5.4l-2.1,1.2l-2-1.1v-2.4l4-4c0.5-0.5,0.5-1.3,0-1.8c-0.5-0.5-1.3-0.5-1.8,0l-2.2,2.2v-3.2
		c0-0.7-0.6-1.2-1.2-1.2s-1.2,0.6-1.2,1.2v3.2l-2.1-2.1c-0.5-0.5-1.3-0.5-1.8,0s-0.5,1.3,0,1.8l4,4v2.4l-2,1.1l-2.1-1.2l-1.5-5.4
		c-0.2-0.7-0.8-1.1-1.5-0.9c-0.7,0.2-1.1,0.8-0.9,1.5l0.8,3l-2.8-1.6c-0.6-0.3-1.4-0.1-1.8,0.5c-0.3,0.6-0.1,1.4,0.5,1.8l2.8,1.6
		l-3,0.8c-0.7,0.2-1.1,0.8-0.9,1.5c0.2,0.6,0.7,1,1.2,1c0.1,0,0.2,0,0.3-0.1l5.4-1.5l2,1.2v2.3l-2.1,1.2l-5.4-1.5
		c-0.7-0.2-1.4,0.2-1.5,0.9c-0.2,0.7,0.2,1.4,0.9,1.5l2.9,0.8l-2.7,1.6c-0.6,0.3-0.8,1.1-0.5,1.8c0.2,0.4,0.7,0.6,1.1,0.6
		c0.2,0,0.5-0.1,0.6-0.2l2.8-1.6l-0.8,3c-0.2,0.7,0.2,1.4,0.9,1.5c0.1,0.1,0.2,0.1,0.3,0.1c0.6,0,1.1-0.4,1.2-1l1.5-5.4l2.1-1.2
		l1.9,1.1v2.4l-4,4c-0.5,0.5-0.5,1.3,0,1.8c0.2,0.2,0.6,0.4,0.9,0.4s0.6-0.1,0.9-0.4l2.1-2.1v3.2c0,0.7,0.6,1.2,1.2,1.2
		s1.2-0.6,1.2-1.2V410l2.2,2.2c0.2,0.2,0.6,0.4,0.9,0.4s0.6-0.1,0.9-0.4c0.5-0.5,0.5-1.3,0-1.8l-4-4V404l2-1.1l2.1,1.2l1.5,5.4
		c0.2,0.6,0.7,1,1.2,1c0.1,0,0.2,0,0.3-0.1c0.7-0.2,1.1-0.8,0.9-1.5l-0.8-3l2.8,1.6c0.2,0.1,0.4,0.2,0.6,0.2c0.5,0,0.8-0.2,1.1-0.6
		c0.3-0.6,0.2-1.4-0.5-1.8l-2.7-1.6l2.9-0.8c0.7-0.2,1.1-0.8,0.9-1.5C766.9,400.5,766.2,400.1,765.6,400.3z M755.6,400.6l-2,1.1
		l-2-1.1v-2.3l2-1.1l2,1.1V400.6z"/>
</g>
<g class="st8">
	<path class="st2" d="M784.3,479.2l-3.7,1l-1.4-0.8v-1.5l1.4-0.8l3.7,1c0.1,0,0.2,0.1,0.2,0.1c0.4,0,0.7-0.3,0.8-0.6
		c0.1-0.5-0.2-1-0.6-1.1l-2-0.6l1.9-1.1c0.4-0.2,0.6-0.8,0.3-1.2c-0.2-0.4-0.8-0.6-1.2-0.3l-1.9,1.1l0.6-2c0.1-0.5-0.2-1-0.6-1.1
		c-0.5-0.1-1,0.2-1.1,0.6l-1,3.7l-1.4,0.8l-1.4-0.8v-1.6l2.7-2.7c0.3-0.3,0.3-0.9,0-1.2c-0.3-0.3-0.9-0.3-1.2,0l-1.5,1.5v-2.1
		c0-0.5-0.4-0.8-0.8-0.8c-0.5,0-0.8,0.4-0.8,0.8v2.1l-1.5-1.5c-0.3-0.3-0.9-0.3-1.2,0c-0.3,0.3-0.3,0.9,0,1.2l2.7,2.7v1.6l-1.4,0.8
		l-1.4-0.8l-1-3.7c-0.1-0.5-0.6-0.7-1.1-0.6c-0.5,0.1-0.7,0.6-0.6,1.1l0.6,2l-1.9-1.1c-0.4-0.2-1-0.1-1.2,0.3
		c-0.2,0.4-0.1,1,0.3,1.2l1.9,1.1l-2,0.6c-0.5,0.1-0.7,0.6-0.6,1.1c0.1,0.4,0.5,0.6,0.8,0.6c0.1,0,0.2,0,0.2-0.1l3.7-1l1.4,0.8v1.5
		l-1.4,0.8l-3.7-1c-0.5-0.1-1,0.2-1.1,0.6c-0.1,0.5,0.2,1,0.6,1.1l2,0.6l-1.9,1.1c-0.4,0.2-0.6,0.8-0.3,1.2c0.2,0.3,0.5,0.5,0.7,0.5
		c0.2,0,0.3-0.1,0.5-0.1l1.9-1.1l-0.6,2c-0.1,0.5,0.2,1,0.6,1.1c0.1,0,0.2,0.1,0.2,0.1c0.4,0,0.7-0.3,0.8-0.6l1-3.7l1.4-0.8l1.4,0.8
		v1.7l-2.7,2.7c-0.3,0.3-0.3,0.9,0,1.2c0.2,0.2,0.4,0.2,0.6,0.2c0.2,0,0.5-0.1,0.6-0.2l1.5-1.5v2.1c0,0.5,0.4,0.8,0.8,0.8
		c0.5,0,0.8-0.4,0.8-0.8V486l1.5,1.5c0.2,0.2,0.4,0.2,0.6,0.2c0.2,0,0.5-0.1,0.6-0.2c0.3-0.3,0.3-0.9,0-1.2l-2.7-2.7v-1.6l1.4-0.8
		l1.4,0.8l1,3.7c0.1,0.4,0.5,0.6,0.8,0.6c0.1,0,0.2,0,0.2-0.1c0.5-0.1,0.7-0.6,0.6-1.1l-0.6-2l1.9,1.1c0.1,0.1,0.3,0.1,0.5,0.1
		c0.3,0,0.6-0.2,0.7-0.5c0.2-0.4,0.1-1-0.3-1.2l-1.9-1.1l2-0.6c0.5-0.1,0.7-0.6,0.6-1.1C785.2,479.3,784.7,479,784.3,479.2z
		 M777.5,479.4l-1.4,0.8l-1.4-0.8v-1.5l1.4-0.8l1.4,0.8V479.4z"/>
</g>
<g class="st8">
	<path class="st2" d="M847,805.6l-8.3,2.3l-3.2-1.9v-3.5l3.2-1.8l8.4,2.3c0.2,0.1,0.3,0.1,0.5,0.1c0.8,0,1.6-0.6,1.9-1.5
		c0.3-1-0.3-2.1-1.4-2.4l-4.6-1.2l4.2-2.4c1-0.5,1.2-1.8,0.7-2.7c-0.6-1-1.8-1.2-2.7-0.7l-4.2,2.4l1.2-4.6c0.3-1-0.3-2.1-1.4-2.4
		c-1-0.3-2.1,0.3-2.4,1.4l-2.3,8.3l-3.2,1.8l-3-1.8v-3.7l6.1-6.1c0.7-0.7,0.7-2,0-2.8c-0.7-0.7-2-0.7-2.8,0l-3.4,3.4v-4.9
		c0-1.1-0.8-1.9-1.9-1.9s-1.9,0.8-1.9,1.9v4.9l-3.3-3.3c-0.7-0.7-2-0.7-2.8,0c-0.7,0.7-0.7,2,0,2.8l6.1,6.1v3.7l-3,1.8l-3.2-1.8
		l-2.2-8.3c-0.3-1-1.4-1.6-2.4-1.4c-1,0.3-1.6,1.4-1.4,2.4l1.2,4.6l-4.2-2.4c-1-0.6-2.1-0.2-2.7,0.7c-0.5,1-0.2,2.1,0.7,2.7l4.2,2.4
		l-4.6,1.2c-1,0.3-1.6,1.4-1.4,2.4c0.2,0.8,1,1.5,1.9,1.5c0.2,0,0.3,0,0.5-0.1l8.4-2.3l3.2,1.8v3.5l-3.2,1.9l-8.3-2.3
		c-1-0.3-2.1,0.3-2.4,1.4c-0.3,1,0.3,2.1,1.4,2.4l4.6,1.2l-4.2,2.4c-0.9,0.6-1.2,1.8-0.7,2.7c0.3,0.6,1,1,1.7,1c0.3,0,0.7-0.1,1-0.3
		l4.2-2.4l-1.2,4.6c-0.3,1,0.3,2.1,1.4,2.4c0.2,0.1,0.3,0.1,0.5,0.1c0.8,0,1.6-0.6,1.9-1.5l2.3-8.4l3.2-1.9l3,1.8v3.8l-6.1,6.1
		c-0.7,0.7-0.7,2,0,2.8c0.4,0.4,0.9,0.6,1.4,0.6c0.5,0,1-0.2,1.4-0.6l3.3-3.3v4.9c0,1.1,0.8,1.9,1.9,1.9s1.9-0.8,1.9-1.9v-4.9
		l3.4,3.4c0.4,0.4,0.9,0.6,1.4,0.6c0.5,0,1-0.2,1.4-0.6c0.7-0.7,0.7-2,0-2.8l-6.1-6.1v-3.7l3-1.8l3.2,1.9l2.3,8.4
		c0.2,0.8,1,1.5,1.9,1.5c0.2,0,0.3,0,0.5-0.1c1-0.3,1.6-1.4,1.4-2.4l-1.2-4.6l4.2,2.4c0.3,0.2,0.6,0.3,1,0.3c0.7,0,1.3-0.3,1.7-1
		c0.6-0.9,0.2-2.1-0.7-2.7l-4.2-2.4l4.6-1.2c1-0.3,1.6-1.4,1.4-2.4C849.1,805.9,848,805.3,847,805.6z M831.5,805.9l-3,1.8l-3-1.8
		v-3.5l3-1.8l3,1.8V805.9z"/>
</g>
<g class="st8">
	<g>
		<g>
			<path class="st2" d="M702.1,524.8l-1-1l1-1c0.3-0.3,0.3-0.8,0-1.1s-0.8-0.3-1.1,0l-1.4,1.3h-2.1c0-0.1-0.1-0.2-0.1-0.2l1.5-1.5
				h1.9c0.4,0,0.7-0.3,0.7-0.7c0-0.4-0.3-0.7-0.7-0.7h-1.4v-1.4c0-0.4-0.3-0.7-0.7-0.7c-0.4,0-0.7,0.3-0.7,0.7v1.9l-1.5,1.5
				c-0.1-0.1-0.2-0.1-0.2-0.1v-2.1l1.3-1.3c0.3-0.3,0.3-0.8,0-1.1s-0.8-0.3-1.1,0l-1,1l-1-1c-0.3-0.3-0.8-0.3-1.1,0s-0.3,0.8,0,1.1
				l1.3,1.3v2.1c-0.1,0-0.2,0.1-0.2,0.1l-1.5-1.5v-1.9c0-0.4-0.3-0.7-0.7-0.7c-0.4,0-0.7,0.3-0.7,0.7v1.4h-1.4
				c-0.4,0-0.7,0.3-0.7,0.7c0,0.4,0.3,0.7,0.7,0.7h1.9l1.5,1.5c-0.1,0.1-0.1,0.2-0.1,0.2h-2.1l-1.3-1.3c-0.3-0.3-0.8-0.3-1.1,0
				s-0.3,0.8,0,1.1l1,1l-1,1c-0.3,0.3-0.3,0.8,0,1.1s0.8,0.3,1.1,0l1.3-1.3h2.1c0,0.1,0.1,0.2,0.1,0.2l-1.5,1.5h-1.9
				c-0.4,0-0.7,0.3-0.7,0.7c0,0.4,0.3,0.7,0.7,0.7h1.4v1.4c0,0.4,0.3,0.7,0.7,0.7c0.4,0,0.7-0.3,0.7-0.7v-1.9l1.5-1.5
				c0.1,0.1,0.2,0.1,0.2,0.1v2.1l-1.3,1.3c-0.3,0.3-0.3,0.8,0,1.1c0.3,0.3,0.8,0.3,1.1,0l1-1l1,1c0.3,0.3,0.8,0.3,1.1,0
				c0.3-0.3,0.3-0.8,0-1.1l-1.3-1.3v-2.1c0.1,0,0.2-0.1,0.2-0.1l1.5,1.5v1.8c0,0.4,0.3,0.7,0.7,0.7c0.4,0,0.7-0.3,0.7-0.7v-1.4h1.4
				c0.4,0,0.7-0.3,0.7-0.7c0-0.4-0.3-0.7-0.7-0.7H699l-1.5-1.5c0.1-0.1,0.1-0.2,0.1-0.2h2.1l1.4,1.3c0.3,0.3,0.8,0.3,1.1,0
				C702.5,525.5,702.5,525.1,702.1,524.8z M695.5,524.6c-0.4,0-0.7-0.3-0.7-0.7s0.3-0.7,0.7-0.7c0.4,0,0.7,0.3,0.7,0.7
				S695.9,524.6,695.5,524.6z"/>
		</g>
	</g>
	<g>
		<g>
			<path class="st2" d="M700,509.3h-2.4c-0.1-0.3-0.2-0.5-0.4-0.7l1.2-2.1c0.2-0.3,0.1-0.8-0.3-1c-0.3-0.2-0.8-0.1-1,0.3l-1.2,2.1
				c-0.1,0-0.3-0.1-0.4-0.1c-0.1,0-0.3,0-0.4,0.1l-1.2-2.1c-0.2-0.3-0.7-0.5-1-0.3c-0.3,0.2-0.5,0.7-0.3,1l1.2,2.1
				c-0.2,0.2-0.3,0.5-0.4,0.7H691c-0.4,0-0.7,0.3-0.7,0.7c0,0.4,0.3,0.7,0.7,0.7h2.4c0.1,0.3,0.2,0.5,0.4,0.7l-1.2,2.1
				c-0.2,0.3-0.1,0.8,0.3,1c0.3,0.2,0.8,0.1,1-0.3l1.2-2.1c0.1,0,0.3,0.1,0.4,0.1c0.1,0,0.3,0,0.4-0.1l1.2,2.1
				c0.2,0.3,0.7,0.5,1,0.3c0.3-0.2,0.5-0.7,0.3-1l-1.2-2.1c0.2-0.2,0.3-0.5,0.4-0.7h2.4c0.4,0,0.7-0.3,0.7-0.7
				C700.8,509.7,700.5,509.3,700,509.3z M695.5,510.9c-0.4,0-0.7-0.3-0.7-0.7c0-0.4,0.3-0.7,0.7-0.7c0.4,0,0.7,0.3,0.7,0.7
				C696.2,510.5,695.9,510.9,695.5,510.9z"/>
		</g>
	</g>
	<g>
		<g>
			<path class="st2" d="M712.4,513.9h-2.4c-0.1-0.3-0.2-0.5-0.4-0.7l1.2-2.1c0.2-0.3,0.1-0.8-0.3-1c-0.3-0.2-0.8-0.1-1,0.3l-1.2,2.1
				c-0.1,0-0.3-0.1-0.4-0.1c-0.2,0-0.3,0-0.4,0.1l-1.2-2.1c-0.2-0.3-0.7-0.5-1-0.3c-0.3,0.2-0.5,0.7-0.3,1l1.2,2.1
				c-0.2,0.2-0.3,0.5-0.4,0.7h-2.4l0,0c-0.4,0-0.7,0.3-0.7,0.7c0,0.4,0.3,0.7,0.7,0.7h2.4c0.1,0.3,0.2,0.5,0.4,0.7l-1.2,2.1
				c-0.2,0.3-0.1,0.8,0.3,1c0.3,0.2,0.8,0.1,1-0.3l1.2-2.1c0.1,0,0.3,0.1,0.4,0.1c0.2,0,0.3,0,0.4-0.1l1.2,2.1
				c0.2,0.3,0.7,0.5,1,0.3c0.3-0.2,0.5-0.7,0.3-1l-1.2-2.1c0.2-0.2,0.3-0.5,0.4-0.7h2.4c0.4,0,0.7-0.3,0.7-0.7
				C713.1,514.3,712.8,513.9,712.4,513.9z M707.8,515.4c-0.4,0-0.7-0.3-0.7-0.7s0.3-0.7,0.7-0.7c0.4,0,0.7,0.3,0.7,0.7
				S708.2,515.4,707.8,515.4z"/>
		</g>
	</g>
	<g>
		<g>
			<circle class="st2" cx="713.9" cy="520.7" r="0.7"/>
		</g>
	</g>
	<g>
		<g>
			<circle class="st2" cx="703.2" cy="507.1" r="0.7"/>
		</g>
	</g>
	<g>
		<g>
			<path class="st2" d="M709.3,524.6h-0.7v-0.7c0-0.4-0.3-0.7-0.7-0.7s-0.7,0.3-0.7,0.7v0.7h-0.7c-0.4,0-0.7,0.3-0.7,0.7
				c0,0.4,0.3,0.7,0.7,0.7h0.7v0.7c0,0.4,0.3,0.7,0.7,0.7s0.7-0.3,0.7-0.7v-0.7h0.7c0.4,0,0.7-0.3,0.7-0.7S709.7,524.6,709.3,524.6z
				"/>
		</g>
	</g>
</g>
<g class="st8">
	<g>
		<g>
			<path class="st2" d="M708.9,826l-2.3-2.2l2.3-2.2c0.7-0.7,0.7-1.8,0.1-2.4c-0.7-0.7-1.8-0.7-2.4-0.1l-3,2.9h-4.7
				c-0.1-0.2-0.1-0.3-0.2-0.5l3.3-3.3h4.1c1,0,1.7-0.7,1.7-1.7c0-1-0.7-1.7-1.7-1.7H703v-3.1c0-1-0.7-1.7-1.7-1.7
				c-1,0-1.7,0.7-1.7,1.7v4.1l-3.4,3.3c-0.2-0.1-0.3-0.2-0.5-0.2v-4.7l2.9-2.9c0.7-0.7,0.7-1.8,0-2.4c-0.7-0.7-1.8-0.7-2.4,0
				l-2.2,2.2l-2.2-2.2c-0.7-0.7-1.8-0.7-2.4,0c-0.7,0.7-0.7,1.8,0,2.4l2.9,2.9v4.7c-0.2,0.1-0.3,0.1-0.5,0.2l-3.3-3.3v-4.1
				c0-1-0.7-1.7-1.7-1.7c-1,0-1.7,0.7-1.7,1.7v3.1h-3.1c-1,0-1.7,0.7-1.7,1.7c0,1,0.7,1.7,1.7,1.7h4.1l3.4,3.3
				c-0.1,0.2-0.2,0.3-0.2,0.5h-4.7l-2.9-2.9c-0.7-0.7-1.8-0.7-2.4,0c-0.7,0.7-0.7,1.8,0,2.4l2.2,2.2l-2.2,2.2
				c-0.7,0.7-0.7,1.8,0,2.4c0.7,0.7,1.8,0.7,2.4,0l2.9-2.9h4.7c0.1,0.2,0.1,0.3,0.2,0.5l-3.4,3.3h-4.1c-1,0-1.7,0.7-1.7,1.7
				c0,1,0.7,1.7,1.7,1.7h3.1v3.1c0,1,0.7,1.7,1.7,1.7c1,0,1.7-0.7,1.7-1.7v-4.1l3.3-3.3c0.2,0.1,0.3,0.2,0.5,0.2v4.7l-2.9,2.9
				c-0.7,0.7-0.7,1.8,0,2.4c0.7,0.7,1.8,0.7,2.4,0l2.2-2.2l2.2,2.2c0.7,0.7,1.8,0.7,2.4,0c0.7-0.7,0.7-1.8,0-2.4l-2.9-2.9v-4.7
				c0.2-0.1,0.3-0.1,0.5-0.2l3.4,3.3v4.1c0,1,0.7,1.7,1.7,1.7c1,0,1.7-0.7,1.7-1.7v-3h3c1,0,1.7-0.7,1.7-1.7c0-1-0.7-1.7-1.7-1.7
				H702l-3.3-3.3c0.1-0.2,0.2-0.3,0.2-0.5h4.7l3,2.9c0.7,0.7,1.8,0.6,2.4-0.1C709.6,827.7,709.6,826.6,708.9,826z M694,825.5
				c-1,0-1.7-0.8-1.7-1.7c0-0.9,0.8-1.7,1.7-1.7c0.9,0,1.7,0.8,1.7,1.7C695.7,824.7,695,825.5,694,825.5z"/>
		</g>
	</g>
	<g>
		<g>
			<path class="st2" d="M704.3,791.5h-5.4c-0.2-0.6-0.5-1.1-1-1.6l2.7-4.7c0.5-0.8,0.2-1.9-0.6-2.3c-0.8-0.5-1.9-0.2-2.3,0.6
				l-2.7,4.7c-0.3-0.1-0.6-0.1-1-0.1s-0.6,0.1-1,0.1l-2.7-4.7c-0.5-0.8-1.5-1.1-2.3-0.6s-1.1,1.5-0.6,2.3l2.7,4.7
				c-0.4,0.5-0.7,1-1,1.6h-5.4c-1,0-1.7,0.7-1.7,1.7c0,1,0.7,1.7,1.7,1.7h5.4c0.2,0.6,0.5,1.1,1,1.6l-2.7,4.7
				c-0.5,0.8-0.2,1.9,0.6,2.3s1.9,0.2,2.3-0.6l2.7-4.7c0.3,0.1,0.6,0.1,1,0.1s0.6-0.1,1-0.1l2.7,4.7c0.5,0.8,1.5,1.1,2.3,0.6
				c0.8-0.5,1.1-1.5,0.6-2.3l-2.7-4.7c0.4-0.5,0.7-1,1-1.6h5.4c1,0,1.7-0.7,1.7-1.7C705.9,792.2,705.2,791.5,704.3,791.5z
				 M694,794.9c-1,0-1.7-0.8-1.7-1.7c0-0.9,0.8-1.7,1.7-1.7c1,0,1.7,0.8,1.7,1.7C695.7,794.1,695,794.9,694,794.9z"/>
		</g>
	</g>
	<g>
		<g>
			<path class="st2" d="M731.7,801.7h-5.4c-0.2-0.6-0.5-1.1-1-1.6l2.7-4.7c0.5-0.8,0.2-1.9-0.6-2.3c-0.8-0.5-1.9-0.2-2.3,0.6
				l-2.7,4.7c-0.3-0.1-0.6-0.1-1-0.1c-0.3,0-0.6,0.1-1,0.1l-2.7-4.7c-0.5-0.8-1.5-1.1-2.3-0.6s-1.1,1.5-0.6,2.3l2.7,4.7
				c-0.4,0.5-0.7,1-1,1.6h-5.4l0,0c-1,0-1.7,0.7-1.7,1.7s0.7,1.7,1.7,1.7h5.4c0.2,0.6,0.5,1.1,1,1.6l-2.7,4.7
				c-0.5,0.8-0.2,1.9,0.6,2.3c0.8,0.5,1.9,0.2,2.3-0.6l2.7-4.7c0.3,0.1,0.6,0.1,1,0.1c0.3,0,0.6-0.1,1-0.1l2.7,4.7
				c0.5,0.8,1.5,1.1,2.3,0.6c0.8-0.5,1.1-1.5,0.6-2.3l-2.7-4.7c0.4-0.5,0.7-1,1-1.6h5.4c1,0,1.7-0.7,1.7-1.7
				C733.4,802.5,732.6,801.7,731.7,801.7z M721.5,805.1c-1,0-1.7-0.8-1.7-1.7c0-0.9,0.8-1.7,1.7-1.7c1,0,1.7,0.8,1.7,1.7
				C723.2,804.3,722.4,805.1,721.5,805.1z"/>
		</g>
	</g>
	<g>
		<g>
			<circle class="st2" cx="735.1" cy="817" r="1.7"/>
		</g>
	</g>
	<g>
		<g>
			<circle class="st2" cx="711.3" cy="786.4" r="1.7"/>
		</g>
	</g>
	<g>
		<g>
			<path class="st2" d="M724.9,825.5h-1.7v-1.7c0-1-0.7-1.7-1.7-1.7c-1,0-1.7,0.7-1.7,1.7v1.7h-1.7c-1,0-1.7,0.7-1.7,1.7
				s0.7,1.7,1.7,1.7h1.7v1.7c0,1,0.7,1.7,1.7,1.7c1,0,1.7-0.7,1.7-1.7v-1.7h1.7c1,0,1.7-0.7,1.7-1.7S725.8,825.5,724.9,825.5z"/>
		</g>
	</g>
</g>
<g>
	<path class="st2" d="M473.3,262.3l-9.9,2.6l-3.8-2.2v-4.1l3.8-2.2l10,2.7c0.2,0.1,0.4,0.1,0.6,0.1c1,0,1.9-0.7,2.2-1.7
		c0.3-1.2-0.4-2.5-1.6-2.8l-5.4-1.5l5-2.9c1.1-0.6,1.5-2,0.9-3.2c-0.6-1.1-2-1.5-3.2-0.9l-5,2.9l1.5-5.4c0.3-1.2-0.4-2.5-1.6-2.8
		c-1.2-0.3-2.5,0.4-2.8,1.6l-2.6,9.9l-3.8,2.2l-3.6-2.1v-4.4l7.3-7.3c0.9-0.9,0.9-2.4,0-3.3s-2.4-0.9-3.3,0l-4,4v-5.8
		c0-1.3-1-2.3-2.3-2.3c-1.3,0-2.3,1-2.3,2.3v5.8l-4-4c-0.9-0.9-2.4-0.9-3.3,0s-0.9,2.4,0,3.3l7.3,7.3v4.4l-3.6,2l-3.8-2.2l-2.6-9.9
		c-0.3-1.2-1.6-2-2.8-1.6c-1.2,0.3-2,1.6-1.6,2.8l1.5,5.4l-5-2.9c-1.1-0.6-2.5-0.3-3.2,0.9c-0.6,1.1-0.3,2.5,0.9,3.2l5,2.9l-5.4,1.5
		c-1.2,0.3-2,1.6-1.6,2.8c0.3,1,1.2,1.7,2.2,1.7c0.2,0,0.4,0,0.6-0.1l10-2.7l3.8,2.2v4.1l-3.8,2.2l-9.9-2.6
		c-1.2-0.3-2.5,0.4-2.8,1.6c-0.3,1.2,0.4,2.5,1.6,2.8l5.4,1.5l-5,2.9c-1.1,0.6-1.5,2-0.9,3.2c0.4,0.8,1.2,1.2,2,1.2
		c0.4,0,0.8-0.1,1.2-0.3l5-2.9l-1.5,5.5c-0.3,1.2,0.4,2.5,1.6,2.8c0.2,0.1,0.4,0.1,0.6,0.1c1,0,1.9-0.7,2.2-1.7l2.7-10l3.8-2.2
		l3.6,2v4.5l-7.3,7.3c-0.9,0.9-0.9,2.4,0,3.3c0.4,0.4,1,0.7,1.6,0.7s1.2-0.2,1.6-0.7l4-4v5.8c0,1.3,1,2.3,2.3,2.3s2.3-1,2.3-2.3
		v-5.8l4,4c0.4,0.4,1,0.7,1.6,0.7s1.2-0.2,1.6-0.7c0.9-0.9,0.9-2.4,0-3.3l-7.3-7.3v-4.4l3.6-2.1l3.8,2.2l2.7,10
		c0.3,1,1.2,1.7,2.2,1.7c0.2,0,0.4,0,0.6-0.1c1.2-0.3,2-1.6,1.6-2.8l-1.5-5.5l5,2.9c0.4,0.2,0.8,0.3,1.2,0.3c0.8,0,1.6-0.4,2-1.2
		c0.6-1.1,0.3-2.5-0.9-3.2l-5-2.9l5.4-1.5c1.2-0.3,2-1.6,1.6-2.8C475.7,262.7,474.5,262,473.3,262.3z M454.9,262.8l-3.6,2.1
		l-3.6-2.1v-4.1l3.6-2.1l3.6,2.1V262.8z"/>
</g>
<g>
	<path class="st2" d="M664.2,722.6l-9.9,2.6l-3.8-2.2v-4.1l3.8-2.2l10,2.7c0.2,0.1,0.4,0.1,0.6,0.1c1,0,1.9-0.7,2.2-1.7
		c0.3-1.2-0.4-2.5-1.6-2.8l-5.4-1.5l5-2.9c1.1-0.6,1.5-2,0.9-3.2c-0.6-1.1-2-1.5-3.2-0.9l-5,2.9l1.5-5.4c0.3-1.2-0.4-2.5-1.6-2.8
		c-1.2-0.3-2.5,0.4-2.8,1.6l-2.6,9.9l-3.8,2.2l-3.6-2.1v-4.4l7.3-7.3c0.9-0.9,0.9-2.4,0-3.3c-0.9-0.9-2.4-0.9-3.3,0l-4,4v-5.8
		c0-1.3-1-2.3-2.3-2.3c-1.3,0-2.3,1-2.3,2.3v5.8l-4-4c-0.9-0.9-2.4-0.9-3.3,0c-0.9,0.9-0.9,2.4,0,3.3l7.3,7.3v4.4l-3.6,2l-3.8-2.2
		l-2.6-9.9c-0.3-1.2-1.6-2-2.8-1.6c-1.2,0.3-2,1.6-1.6,2.8l1.5,5.4l-5-2.9c-1.1-0.6-2.5-0.3-3.2,0.9c-0.6,1.1-0.3,2.5,0.9,3.2l5,2.9
		l-5.4,1.5c-1.2,0.3-2,1.6-1.6,2.8c0.3,1,1.2,1.7,2.2,1.7c0.2,0,0.4,0,0.6-0.1l10-2.7l3.8,2.2v4.1l-3.8,2.2l-9.9-2.6
		c-1.2-0.3-2.5,0.4-2.8,1.6c-0.3,1.2,0.4,2.5,1.6,2.8l5.4,1.5l-5,2.9c-1.1,0.6-1.5,2-0.9,3.2c0.4,0.8,1.2,1.2,2,1.2
		c0.4,0,0.8-0.1,1.2-0.3l5-2.9l-1.5,5.5c-0.3,1.2,0.4,2.5,1.6,2.8c0.2,0.1,0.4,0.1,0.6,0.1c1,0,1.9-0.7,2.2-1.7l2.7-10l3.8-2.2
		l3.6,2v4.5l-7.3,7.3c-0.9,0.9-0.9,2.4,0,3.3c0.4,0.4,1,0.7,1.6,0.7s1.2-0.2,1.6-0.7l4-4v5.8c0,1.3,1,2.3,2.3,2.3s2.3-1,2.3-2.3
		v-5.8l4,4c0.4,0.4,1,0.7,1.6,0.7s1.2-0.2,1.6-0.7c0.9-0.9,0.9-2.4,0-3.3l-7.3-7.3v-4.4l3.6-2.1l3.8,2.2l2.7,10
		c0.3,1,1.2,1.7,2.2,1.7c0.2,0,0.4,0,0.6-0.1c1.2-0.3,2-1.6,1.6-2.8l-1.5-5.5l5,2.9c0.4,0.2,0.8,0.3,1.2,0.3c0.8,0,1.6-0.4,2-1.2
		c0.6-1.1,0.3-2.5-0.9-3.2l-5-2.9l5.4-1.5c1.2-0.3,2-1.6,1.6-2.8C666.7,723,665.4,722.3,664.2,722.6z M645.9,723.1l-3.6,2.1
		l-3.6-2.1v-4.1l3.6-2.1l3.6,2.1V723.1z"/>
</g>
<g>
	<path class="st2" d="M756.9,626.2l-9.9,2.6l-3.8-2.2v-4.1l3.8-2.2l10,2.7c0.2,0.1,0.4,0.1,0.6,0.1c1,0,1.9-0.7,2.2-1.7
		c0.3-1.2-0.4-2.5-1.6-2.8l-5.4-1.5l5-2.9c1.1-0.6,1.5-2,0.9-3.2c-0.6-1.1-2-1.5-3.2-0.9l-5,2.9l1.5-5.4c0.3-1.2-0.4-2.5-1.6-2.8
		c-1.2-0.3-2.5,0.4-2.8,1.6l-2.6,9.9l-3.8,2.2l-3.6-2.1v-4.4l7.3-7.3c0.9-0.9,0.9-2.4,0-3.3c-0.9-0.9-2.4-0.9-3.3,0l-4,4v-5.8
		c0-1.3-1-2.3-2.3-2.3c-1.3,0-2.3,1-2.3,2.3v5.8l-4-4c-0.9-0.9-2.4-0.9-3.3,0c-0.9,0.9-0.9,2.4,0,3.3l7.3,7.3v4.4l-3.6,2l-3.8-2.2
		l-2.6-9.9c-0.3-1.2-1.6-2-2.8-1.6c-1.2,0.3-2,1.6-1.6,2.8l1.5,5.4l-5-2.9c-1.1-0.6-2.5-0.3-3.2,0.9c-0.6,1.1-0.3,2.5,0.9,3.2l5,2.9
		l-5.4,1.5c-1.2,0.3-2,1.6-1.6,2.8c0.3,1,1.2,1.7,2.2,1.7c0.2,0,0.4,0,0.6-0.1l10-2.7l3.8,2.2v4.1l-3.8,2.2l-9.9-2.6
		c-1.2-0.3-2.5,0.4-2.8,1.6c-0.3,1.2,0.4,2.5,1.6,2.8l5.4,1.5l-5,2.9c-1.1,0.6-1.5,2-0.9,3.2c0.4,0.8,1.2,1.2,2,1.2
		c0.4,0,0.8-0.1,1.2-0.3l5-2.9l-1.5,5.5c-0.3,1.2,0.4,2.5,1.6,2.8c0.2,0.1,0.4,0.1,0.6,0.1c1,0,1.9-0.7,2.2-1.7l2.7-10l3.8-2.2
		l3.6,2v4.5l-7.3,7.3c-0.9,0.9-0.9,2.4,0,3.3c0.4,0.4,1,0.7,1.6,0.7s1.2-0.2,1.6-0.7l4-4v5.8c0,1.3,1,2.3,2.3,2.3
		c1.3,0,2.3-1,2.3-2.3v-5.8l4,4c0.4,0.4,1,0.7,1.6,0.7s1.2-0.2,1.6-0.7c0.9-0.9,0.9-2.4,0-3.3l-7.3-7.3v-4.4l3.6-2.1l3.8,2.2l2.7,10
		c0.3,1,1.2,1.7,2.2,1.7c0.2,0,0.4,0,0.6-0.1c1.2-0.3,2-1.6,1.6-2.8l-1.5-5.5l5,2.9c0.4,0.2,0.8,0.3,1.2,0.3c0.8,0,1.6-0.4,2-1.2
		c0.6-1.1,0.3-2.5-0.9-3.2l-5-2.9l5.4-1.5c1.2-0.3,2-1.6,1.6-2.8C759.4,626.6,758.1,625.8,756.9,626.2z M738.6,626.6l-3.6,2.1
		l-3.6-2.1v-4.1l3.6-2.1l3.6,2.1V626.6z"/>
</g>
<g class="st9">
	<path class="st2" d="M586.5,333.7l-9.2,2.5l-3.6-2v-3.8l3.5-2l9.3,2.5c0.2,0.1,0.4,0.1,0.6,0.1c1,0,1.8-0.6,2.1-1.6
		c0.3-1.1-0.4-2.3-1.5-2.7l-5.1-1.4l4.7-2.7c1-0.6,1.4-1.9,0.8-2.9c-0.6-1-1.9-1.4-2.9-0.8l-4.7,2.7l1.4-5.1
		c0.3-1.1-0.4-2.3-1.5-2.7c-1.1-0.3-2.3,0.4-2.7,1.5l-2.5,9.2l-3.6,2l-3.3-1.9v-4.1l6.8-6.8c0.8-0.8,0.8-2.2,0-3
		c-0.8-0.8-2.2-0.8-3,0l-3.7,3.7V309c0-1.2-1-2.1-2.1-2.1c-1.2,0-2.1,1-2.1,2.1v5.4l-3.7-3.7c-0.8-0.8-2.2-0.8-3,0
		c-0.8,0.8-0.8,2.2,0,3l6.8,6.8v4.1l-3.3,1.9l-3.6-2l-2.5-9.3c-0.3-1.1-1.5-1.8-2.7-1.5c-1.1,0.3-1.8,1.5-1.5,2.7l1.4,5.1l-4.7-2.7
		c-1-0.6-2.4-0.2-2.9,0.8c-0.6,1-0.2,2.4,0.8,2.9l4.7,2.7l-5.1,1.4c-1.1,0.3-1.8,1.5-1.5,2.7c0.3,1,1.1,1.6,2.1,1.6
		c0.2,0,0.4,0,0.6-0.1l9.3-2.5l3.5,2v3.8l-3.6,2l-9.2-2.5c-1.1-0.3-2.3,0.4-2.7,1.5c-0.3,1.1,0.4,2.3,1.5,2.7l5.1,1.4l-4.7,2.7
		c-1,0.6-1.4,1.9-0.8,2.9c0.4,0.7,1.1,1.1,1.9,1.1c0.3,0,0.7-0.1,1.1-0.3l4.7-2.7l-1.4,5.1c-0.3,1.1,0.4,2.3,1.5,2.7
		c0.2,0.1,0.4,0.1,0.6,0.1c1,0,1.8-0.6,2.1-1.6l2.5-9.3l3.6-2l3.3,1.9v4.2l-6.8,6.8c-0.8,0.8-0.8,2.2,0,3c0.4,0.4,1,0.6,1.5,0.6
		c0.6,0,1.1-0.2,1.5-0.6l3.7-3.7v5.4c0,1.2,1,2.1,2.1,2.1s2.1-1,2.1-2.1V350l3.7,3.7c0.4,0.4,1,0.6,1.5,0.6c0.6,0,1.1-0.2,1.5-0.6
		c0.8-0.8,0.8-2.2,0-3l-6.8-6.8v-4.1l3.3-1.9l3.6,2l2.5,9.3c0.3,1,1.1,1.6,2.1,1.6c0.2,0,0.4,0,0.6-0.1c1.1-0.3,1.8-1.5,1.5-2.7
		l-1.4-5.1l4.7,2.7c0.3,0.2,0.7,0.3,1.1,0.3c0.7,0,1.5-0.4,1.9-1.1c0.6-1,0.2-2.4-0.8-2.9l-4.7-2.7l5.1-1.4c1.1-0.3,1.8-1.5,1.5-2.7
		C588.8,334.1,587.7,333.4,586.5,333.7z M569.4,334.1l-3.3,1.9l-3.3-1.9v-3.8l3.3-1.9l3.3,1.9V334.1z"/>
</g>
<g class="st7">
	<path class="st2" d="M291.6,650l-5.9,1.6l-2.3-1.3v-2.4l2.2-1.3l5.9,1.6c0.1,0.1,0.2,0.1,0.3,0.1c0.6,0,1.1-0.4,1.3-1
		c0.2-0.7-0.2-1.5-1-1.7l-3.2-0.8l3-1.7c0.7-0.4,0.9-1.2,0.5-1.9s-1.2-0.9-1.9-0.5l-3,1.7l0.8-3.2c0.2-0.7-0.2-1.5-1-1.7
		c-0.7-0.2-1.5,0.2-1.7,1l-1.6,5.9l-2.3,1.3l-2.1-1.2v-2.6l4.3-4.3c0.5-0.5,0.5-1.4,0-1.9c-0.5-0.5-1.4-0.5-1.9,0l-2.4,2.4v-3.4
		c0-0.7-0.6-1.4-1.4-1.4s-1.4,0.6-1.4,1.4v3.4l-2.4-2.4c-0.5-0.5-1.4-0.5-1.9,0c-0.5,0.5-0.5,1.4,0,1.9l4.3,4.3v2.6l-2.1,1.2
		l-2.3-1.3l-1.6-5.9c-0.2-0.7-1-1.2-1.7-1c-0.7,0.2-1.2,1-1,1.7l0.8,3.2l-3-1.7c-0.7-0.4-1.5-0.2-1.9,0.5s-0.2,1.5,0.5,1.9l3,1.7
		l-3.2,0.8c-0.7,0.2-1.2,1-1,1.7c0.2,0.6,0.7,1,1.3,1c0.1,0,0.2,0,0.3-0.1l5.9-1.6l2.2,1.3v2.4l-2.3,1.3l-5.9-1.6
		c-0.7-0.2-1.5,0.2-1.7,1c-0.2,0.7,0.2,1.5,1,1.7l3.2,0.8l-2.9,1.7c-0.7,0.4-0.9,1.2-0.5,1.9c0.2,0.5,0.7,0.7,1.2,0.7
		c0.2,0,0.5-0.1,0.7-0.2l3-1.7l-0.8,3.2c-0.2,0.7,0.2,1.5,1,1.7c0.1,0.1,0.2,0.1,0.3,0.1c0.6,0,1.1-0.4,1.3-1l1.6-5.9l2.3-1.3
		l2.1,1.2v2.7l-4.3,4.3c-0.5,0.5-0.5,1.4,0,1.9c0.3,0.3,0.6,0.4,1,0.4c0.3,0,0.7-0.1,1-0.4l2.4-2.4v3.4c0,0.7,0.6,1.4,1.4,1.4
		s1.4-0.6,1.4-1.4v-3.5l2.4,2.4c0.3,0.3,0.6,0.4,1,0.4c0.3,0,0.7-0.1,1-0.4c0.5-0.5,0.5-1.4,0-1.9l-4.3-4.3v-2.6l2.1-1.2l2.3,1.3
		l1.6,5.9c0.2,0.6,0.7,1,1.3,1c0.1,0,0.2,0,0.3-0.1c0.7-0.2,1.2-1,1-1.7l-0.8-3.2l3,1.7c0.2,0.1,0.5,0.2,0.7,0.2
		c0.5,0,0.9-0.2,1.2-0.7c0.4-0.7,0.2-1.5-0.5-1.9l-2.9-1.7l3.2-0.8c0.7-0.2,1.2-1,1-1.7C293.1,650.3,292.3,649.8,291.6,650z
		 M280.7,650.3l-2.1,1.2l-2.1-1.2v-2.4l2.1-1.2l2.1,1.2V650.3z"/>
</g>
<g>
	<g>
		<g>
			<path class="st2" d="M550.6,592.4l-1.8-1.8l1.8-1.8c0.6-0.5,0.6-1.4,0.1-1.9c-0.5-0.6-1.4-0.6-1.9-0.1l-2.4,2.3h-3.8
				c-0.1-0.1-0.1-0.3-0.2-0.4l2.7-2.7h3.3c0.7,0,1.4-0.6,1.4-1.4c0-0.7-0.6-1.4-1.4-1.4h-2.5V581c0-0.7-0.6-1.4-1.4-1.4
				s-1.4,0.6-1.4,1.4v3.3l-2.7,2.7c-0.1-0.1-0.3-0.1-0.4-0.2v-3.7l2.3-2.3c0.5-0.5,0.5-1.4,0-1.9c-0.5-0.5-1.4-0.5-1.9,0l-1.8,1.8
				l-1.8-1.8c-0.5-0.5-1.4-0.5-1.9,0c-0.5,0.5-0.5,1.4,0,1.9l2.3,2.3v3.7c-0.1,0.1-0.3,0.1-0.4,0.2l-2.7-2.7V581
				c0-0.7-0.6-1.4-1.4-1.4s-1.4,0.6-1.4,1.4v2.5H529c-0.7,0-1.4,0.6-1.4,1.4s0.6,1.4,1.4,1.4h3.3l2.7,2.7c-0.1,0.1-0.1,0.3-0.2,0.4
				h-3.7l-2.3-2.3c-0.5-0.5-1.4-0.5-1.9,0c-0.5,0.5-0.5,1.4,0,1.9l1.8,1.8l-1.8,1.8c-0.5,0.5-0.5,1.4,0,1.9c0.5,0.5,1.4,0.5,1.9,0
				l2.3-2.3h3.7c0.1,0.1,0.1,0.3,0.2,0.4l-2.7,2.7H529c-0.7,0-1.4,0.6-1.4,1.4c0,0.7,0.6,1.4,1.4,1.4h2.5v2.5c0,0.7,0.6,1.4,1.4,1.4
				c0.7,0,1.4-0.6,1.4-1.4V597l2.7-2.7c0.1,0.1,0.3,0.1,0.4,0.2v3.7l-2.3,2.3c-0.5,0.5-0.5,1.4,0,1.9c0.5,0.5,1.4,0.5,1.9,0l1.8-1.8
				l1.8,1.8c0.5,0.5,1.4,0.5,1.9,0c0.5-0.5,0.5-1.4,0-1.9l-2.3-2.3v-3.7c0.1-0.1,0.3-0.1,0.4-0.2l2.7,2.7v3.3c0,0.7,0.6,1.4,1.4,1.4
				c0.7,0,1.4-0.6,1.4-1.4v-2.4h2.5c0.7,0,1.4-0.6,1.4-1.4s-0.6-1.4-1.4-1.4h-3.3l-2.7-2.7c0.1-0.1,0.1-0.3,0.2-0.4h3.8l2.4,2.3
				c0.6,0.5,1.4,0.5,1.9-0.1C551.2,593.8,551.1,592.9,550.6,592.4z M538.7,592c-0.7,0-1.4-0.6-1.4-1.4s0.6-1.4,1.4-1.4
				s1.4,0.6,1.4,1.4S539.4,592,538.7,592z"/>
		</g>
	</g>
	<g>
		<g>
			<path class="st2" d="M546.8,564.8h-4.3c-0.2-0.5-0.5-0.9-0.7-1.3l2.1-3.7c0.4-0.7,0.2-1.5-0.5-1.9c-0.7-0.4-1.5-0.2-1.9,0.5
				l-2.1,3.7c-0.2-0.1-0.5-0.1-0.7-0.1c-0.3,0-0.5,0-0.7,0.1l-2.1-3.7c-0.4-0.7-1.2-0.8-1.9-0.5c-0.7,0.4-0.8,1.2-0.5,1.9l2.1,3.7
				c-0.3,0.4-0.6,0.8-0.7,1.3h-4.3c-0.7,0-1.4,0.6-1.4,1.4s0.6,1.4,1.4,1.4h4.3c0.2,0.5,0.5,0.9,0.7,1.3l-2.1,3.7
				c-0.4,0.7-0.2,1.5,0.5,1.9c0.7,0.4,1.5,0.2,1.9-0.5l2.1-3.7c0.2,0.1,0.5,0.1,0.7,0.1c0.3,0,0.5,0,0.7-0.1l2.1,3.7
				c0.4,0.7,1.2,0.8,1.9,0.5c0.7-0.4,0.8-1.2,0.5-1.9l-2.1-3.7c0.3-0.4,0.6-0.8,0.7-1.3h4.3c0.7,0,1.4-0.6,1.4-1.4
				S547.6,564.8,546.8,564.8z M538.7,567.5c-0.7,0-1.4-0.6-1.4-1.4c0-0.7,0.6-1.4,1.4-1.4c0.7,0,1.4,0.6,1.4,1.4
				C540.1,566.9,539.4,567.5,538.7,567.5z"/>
		</g>
	</g>
	<g>
		<g>
			<path class="st2" d="M568.8,573h-4.3c-0.2-0.5-0.5-0.9-0.7-1.3l2.1-3.7c0.4-0.7,0.2-1.5-0.5-1.9c-0.7-0.4-1.5-0.2-1.9,0.5
				l-2.1,3.7c-0.2-0.1-0.5-0.1-0.7-0.1s-0.5,0-0.7,0.1l-2.1-3.7c-0.4-0.7-1.2-0.8-1.9-0.5c-0.7,0.4-0.8,1.2-0.5,1.9l2.1,3.7
				c-0.3,0.4-0.6,0.8-0.7,1.3h-4.3l0,0c-0.7,0-1.4,0.6-1.4,1.4s0.6,1.4,1.4,1.4h4.3c0.2,0.5,0.5,0.9,0.7,1.3l-2.1,3.7
				c-0.4,0.7-0.2,1.5,0.5,1.9c0.7,0.4,1.5,0.2,1.9-0.5l2.1-3.7c0.2,0.1,0.5,0.1,0.7,0.1c0.3,0,0.5,0,0.7-0.1l2.1,3.7
				c0.4,0.7,1.2,0.8,1.9,0.5c0.7-0.4,0.8-1.2,0.5-1.9l-2.1-3.7c0.3-0.4,0.6-0.8,0.7-1.3h4.3c0.7,0,1.4-0.6,1.4-1.4
				C570.2,573.6,569.5,573,568.8,573z M560.6,575.7c-0.7,0-1.4-0.6-1.4-1.4s0.6-1.4,1.4-1.4c0.7,0,1.4,0.6,1.4,1.4
				S561.4,575.7,560.6,575.7z"/>
		</g>
	</g>
	<g>
		<g>
			<circle class="st2" cx="571.5" cy="585.3" r="1.4"/>
		</g>
	</g>
	<g>
		<g>
			<circle class="st2" cx="552.5" cy="560.7" r="1.4"/>
		</g>
	</g>
	<g>
		<g>
			<path class="st2" d="M563.4,592H562v-1.4c0-0.7-0.6-1.4-1.4-1.4s-1.4,0.6-1.4,1.4v1.4H558c-0.7,0-1.4,0.6-1.4,1.4
				s0.6,1.4,1.4,1.4h1.4v1.4c0,0.7,0.6,1.4,1.4,1.4c0.7,0,1.4-0.6,1.4-1.4v-1.4h1.4c0.7,0,1.4-0.6,1.4-1.4S564.1,592,563.4,592z"/>
		</g>
	</g>
</g>
<g>
	<path class="st2" d="M796.6,349.5l-9.2,2.5l-3.6-2v-3.8l3.5-2l9.3,2.5c0.2,0.1,0.4,0.1,0.6,0.1c1,0,1.8-0.6,2.1-1.6
		c0.3-1.1-0.4-2.3-1.5-2.7l-5.1-1.4l4.7-2.7c1-0.6,1.4-1.9,0.8-2.9s-1.9-1.4-2.9-0.8l-4.7,2.7l1.4-5.1c0.3-1.1-0.4-2.3-1.5-2.7
		c-1.1-0.3-2.3,0.4-2.7,1.5l-2.5,9.2l-3.6,2l-3.3-1.9v-4.1l6.8-6.8c0.8-0.8,0.8-2.2,0-3c-0.8-0.8-2.2-0.8-3,0l-3.7,3.7v-5.4
		c0-1.2-1-2.1-2.1-2.1c-1.2,0-2.1,1-2.1,2.1v5.4l-3.7-3.7c-0.8-0.8-2.2-0.8-3,0c-0.8,0.8-0.8,2.2,0,3l6.8,6.8v4.1l-3.3,1.9l-3.6-2
		l-2.5-9.2c-0.3-1.1-1.5-1.8-2.7-1.5c-1.1,0.3-1.8,1.5-1.5,2.7l1.4,5.1l-4.7-2.7c-1-0.6-2.4-0.2-2.9,0.8c-0.6,1-0.2,2.4,0.8,2.9
		l4.7,2.7l-5.1,1.4c-1.1,0.3-1.8,1.5-1.5,2.7c0.3,1,1.1,1.6,2.1,1.6c0.2,0,0.4,0,0.6-0.1l9.3-2.5l3.5,2v3.8l-3.6,2l-9.2-2.5
		c-1.1-0.3-2.3,0.4-2.7,1.5c-0.3,1.1,0.4,2.3,1.5,2.7l5.1,1.4l-4.7,2.7c-1,0.6-1.4,1.9-0.8,2.9c0.4,0.7,1.1,1.1,1.9,1.1
		c0.3,0,0.7-0.1,1.1-0.3l4.7-2.7l-1.4,5.1c-0.3,1.1,0.4,2.3,1.5,2.7c0.2,0.1,0.4,0.1,0.6,0.1c1,0,1.8-0.6,2.1-1.6l2.5-9.3l3.6-2
		l3.3,1.9v4.2l-6.8,6.8c-0.8,0.8-0.8,2.2,0,3c0.4,0.4,1,0.6,1.5,0.6c0.6,0,1.1-0.2,1.5-0.6l3.7-3.7v5.4c0,1.2,1,2.1,2.1,2.1
		s2.1-1,2.1-2.1v-5.4l3.7,3.7c0.4,0.4,1,0.6,1.5,0.6s1.1-0.2,1.5-0.6c0.8-0.8,0.8-2.2,0-3l-6.8-6.8v-4.1l3.3-1.9l3.6,2l2.5,9.3
		c0.3,1,1.1,1.6,2.1,1.6c0.2,0,0.4,0,0.6-0.1c1.1-0.3,1.8-1.5,1.5-2.7l-1.4-5.1l4.7,2.7c0.3,0.2,0.7,0.3,1.1,0.3
		c0.7,0,1.5-0.4,1.9-1.1c0.6-1,0.2-2.4-0.8-2.9l-4.7-2.7l5.1-1.4c1.1-0.3,1.8-1.5,1.5-2.7C798.9,349.9,797.8,349.2,796.6,349.5z
		 M779.5,350l-3.3,1.9l-3.3-1.9v-3.8l3.3-1.9l3.3,1.9V350z"/>
</g>
<g class="st9">
	<path class="st2" d="M856.8,456.9l-6.3,1.7l-2.4-1.4v-2.7l2.4-1.4l6.3,1.7c0.1,0.1,0.3,0.1,0.4,0.1c0.7,0,1.2-0.5,1.4-1.1
		c0.2-0.8-0.3-1.6-1-1.8l-3.4-0.9l3.2-1.9c0.7-0.4,1-1.3,0.6-2c-0.4-0.7-1.3-1-2-0.6l-3.2,1.9l0.9-3.4c0.2-0.8-0.3-1.6-1-1.8
		c-0.8-0.2-1.6,0.3-1.8,1l-1.7,6.3l-2.4,1.4l-2.3-1.3V448l4.6-4.6c0.6-0.6,0.6-1.5,0-2.1c-0.6-0.6-1.5-0.6-2.1,0l-2.5,2.5v-3.7
		c0-0.8-0.7-1.5-1.5-1.5c-0.8,0-1.5,0.7-1.5,1.5v3.7l-2.5-2.5c-0.6-0.6-1.5-0.6-2.1,0c-0.6,0.6-0.6,1.5,0,2.1l4.6,4.6v2.8l-2.3,1.3
		l-2.4-1.4l-1.7-6.3c-0.2-0.8-1-1.2-1.8-1c-0.8,0.2-1.2,1-1,1.8l0.9,3.4l-3.2-1.9c-0.7-0.4-1.6-0.2-2,0.6c-0.4,0.7-0.2,1.6,0.6,2
		l3.2,1.9l-3.4,0.9c-0.8,0.2-1.2,1-1,1.8c0.2,0.7,0.8,1.1,1.4,1.1c0.1,0,0.3,0,0.4-0.1l6.3-1.7l2.4,1.4v2.7l-2.4,1.4l-6.3-1.7
		c-0.8-0.2-1.6,0.3-1.8,1c-0.2,0.8,0.3,1.6,1,1.8l3.4,0.9l-3.2,1.9c-0.7,0.4-1,1.3-0.6,2c0.3,0.5,0.8,0.7,1.3,0.7
		c0.2,0,0.5-0.1,0.7-0.2l3.2-1.9l-1,3.5c-0.2,0.8,0.3,1.6,1,1.8c0.1,0.1,0.3,0.1,0.4,0.1c0.7,0,1.2-0.5,1.4-1.1l1.7-6.3l2.4-1.4
		l2.3,1.3v2.8l-4.6,4.6c-0.6,0.6-0.6,1.5,0,2.1c0.3,0.3,0.7,0.5,1,0.5c0.4,0,0.7-0.2,1-0.5l2.5-2.5v3.7c0,0.8,0.7,1.5,1.5,1.5
		s1.5-0.7,1.5-1.5V468l2.5,2.5c0.3,0.3,0.7,0.5,1,0.5c0.4,0,0.7-0.2,1-0.5c0.6-0.6,0.6-1.5,0-2.1l-4.6-4.6V461l2.3-1.3l2.4,1.4
		l1.7,6.3c0.2,0.7,0.8,1.1,1.4,1.1c0.1,0,0.3,0,0.4-0.1c0.8-0.2,1.2-1,1-1.8l-1-3.5l3.2,1.9c0.2,0.1,0.5,0.2,0.7,0.2
		c0.5,0,1-0.3,1.3-0.7c0.4-0.7,0.2-1.6-0.6-2l-3.2-1.9l3.4-0.9c0.8-0.2,1.2-1,1-1.8C858.4,457.2,857.6,456.7,856.8,456.9z
		 M845.1,457.2l-2.3,1.3l-2.3-1.3v-2.7l2.3-1.3l2.3,1.3V457.2z"/>
</g>
<g class="st9">
	<path class="st2" d="M881.3,585l-6.8,1.8l-2.6-1.5v-2.8l2.6-1.5l6.8,1.8c0.1,0.1,0.3,0.1,0.4,0.1c0.7,0,1.4-0.5,1.5-1.2
		c0.2-0.8-0.3-1.7-1.1-1.9l-3.7-1l3.4-2c0.7-0.5,1-1.4,0.6-2.1c-0.5-0.7-1.4-1-2.1-0.6l-3.4,2l1-3.7c0.2-0.8-0.3-1.7-1.1-1.9
		c-0.8-0.2-1.7,0.3-1.9,1.1l-1.8,6.8l-2.6,1.5l-2.4-1.4v-3l5-5c0.6-0.6,0.6-1.6,0-2.3s-1.6-0.6-2.3,0l-2.7,2.7v-4
		c0-0.8-0.7-1.6-1.6-1.6c-0.8,0-1.6,0.7-1.6,1.6v4l-2.7-2.7c-0.6-0.6-1.6-0.6-2.3,0s-0.6,1.6,0,2.3l5,5v3l-2.4,1.4l-2.6-1.5
		l-1.8-6.8c-0.2-0.8-1.1-1.4-1.9-1.1c-0.8,0.2-1.4,1.1-1.1,1.9l1,3.7l-3.4-2c-0.7-0.5-1.7-0.2-2.1,0.6c-0.5,0.7-0.2,1.7,0.6,2.1
		l3.4,2l-3.7,1c-0.8,0.2-1.4,1.1-1.1,1.9c0.2,0.7,0.8,1.2,1.5,1.2c0.1,0,0.3,0,0.4-0.1l6.8-1.8l2.6,1.5v2.8l-2.6,1.5l-6.8-1.8
		c-0.8-0.2-1.7,0.3-1.9,1.1c-0.2,0.8,0.3,1.7,1.1,1.9l3.7,1l-3.4,2c-0.7,0.5-1,1.4-0.6,2.1c0.3,0.5,0.8,0.8,1.4,0.8
		c0.3,0,0.6-0.1,0.8-0.2l3.4-2l-1,3.7c-0.2,0.8,0.3,1.7,1.1,1.9c0.1,0.1,0.3,0.1,0.4,0.1c0.7,0,1.4-0.5,1.5-1.2l1.8-6.8l2.6-1.5
		l2.4,1.4v3l-5,5c-0.6,0.6-0.6,1.6,0,2.3c0.3,0.3,0.7,0.5,1.1,0.5s0.8-0.2,1.1-0.5l2.7-2.7v4c0,0.8,0.7,1.6,1.6,1.6
		c0.8,0,1.6-0.7,1.6-1.6v-4l2.7,2.7c0.3,0.3,0.7,0.5,1.1,0.5s0.8-0.2,1.1-0.5c0.6-0.6,0.6-1.6,0-2.3l-5-5v-3l2.4-1.4l2.6,1.5
		l1.8,6.8c0.2,0.7,0.8,1.2,1.5,1.2c0.1,0,0.3,0,0.4-0.1c0.8-0.2,1.4-1.1,1.1-1.9l-1-3.7l3.4,2c0.2,0.2,0.5,0.2,0.8,0.2
		c0.6,0,1.1-0.3,1.4-0.8c0.5-0.7,0.2-1.7-0.6-2.1l-3.4-2l3.7-1c0.8-0.2,1.4-1.1,1.1-1.9C883,585.3,882.2,584.8,881.3,585z
		 M868.8,585.3l-2.4,1.4l-2.4-1.4v-2.8l2.4-1.4l2.4,1.4V585.3z"/>
</g>
<g class="st7">
	<path class="st2" d="M847.2,658.1l-5.9,1.6l-2.3-1.3V656l2.2-1.3l5.9,1.6c0.1,0.1,0.2,0.1,0.3,0.1c0.6,0,1.1-0.4,1.3-1
		c0.2-0.7-0.2-1.5-1-1.7l-3.2-0.8l3-1.7c0.7-0.4,0.9-1.2,0.5-1.9c-0.4-0.7-1.2-0.9-1.9-0.5l-3,1.7l0.8-3.2c0.2-0.7-0.2-1.5-1-1.7
		c-0.7-0.2-1.5,0.2-1.7,1l-1.6,5.9l-2.3,1.3l-2.1-1.2v-2.6l4.3-4.3c0.5-0.5,0.5-1.4,0-1.9c-0.5-0.5-1.4-0.5-1.9,0l-2.4,2.4v-3.4
		c0-0.7-0.6-1.4-1.4-1.4s-1.4,0.6-1.4,1.4v3.4l-2.4-2.4c-0.5-0.5-1.4-0.5-1.9,0c-0.5,0.5-0.5,1.4,0,1.9l4.3,4.3v2.6l-2.1,1.2
		l-2.3-1.3l-1.6-5.9c-0.2-0.7-1-1.2-1.7-1c-0.7,0.2-1.2,1-1,1.7l0.8,3.2l-3-1.7c-0.7-0.4-1.5-0.2-1.9,0.5c-0.4,0.7-0.2,1.5,0.5,1.9
		l3,1.7l-3.2,0.8c-0.7,0.2-1.2,1-1,1.7c0.2,0.6,0.7,1,1.3,1c0.1,0,0.2,0,0.3-0.1l5.9-1.6l2.2,1.3v2.4l-2.3,1.3l-5.9-1.6
		c-0.7-0.2-1.5,0.2-1.7,1c-0.2,0.7,0.2,1.5,1,1.7l3.2,0.8l-2.9,1.7c-0.7,0.4-0.9,1.2-0.5,1.9c0.2,0.5,0.7,0.7,1.2,0.7
		c0.2,0,0.5-0.1,0.7-0.2l3-1.7l-0.8,3.2c-0.2,0.7,0.2,1.5,1,1.7c0.1,0.1,0.2,0.1,0.3,0.1c0.6,0,1.1-0.4,1.3-1l1.6-5.9l2.3-1.3
		l2.1,1.2v2.7l-4.3,4.3c-0.5,0.5-0.5,1.4,0,1.9c0.3,0.3,0.6,0.4,1,0.4s0.7-0.1,1-0.4l2.4-2.4v3.4c0,0.7,0.6,1.4,1.4,1.4
		s1.4-0.6,1.4-1.4v-3.5l2.4,2.4c0.3,0.3,0.6,0.4,1,0.4s0.7-0.1,1-0.4c0.5-0.5,0.5-1.4,0-1.9l-4.3-4.3V662l2.1-1.2l2.3,1.3l1.6,5.9
		c0.2,0.6,0.7,1,1.3,1c0.1,0,0.2,0,0.3-0.1c0.7-0.2,1.2-1,1-1.7l-0.8-3.2l3,1.7c0.2,0.1,0.5,0.2,0.7,0.2c0.5,0,0.9-0.2,1.2-0.7
		c0.4-0.7,0.2-1.5-0.5-1.9l-2.9-1.7l3.2-0.8c0.7-0.2,1.2-1,1-1.7C848.7,658.3,847.9,657.9,847.2,658.1z M836.3,658.3l-2.1,1.2
		l-2.1-1.2v-2.4l2.1-1.2l2.1,1.2L836.3,658.3L836.3,658.3z"/>
</g>
<g>
	<g>
		<g>
			<path class="st2" d="M716.5,335.2l-1.5-1.5l1.5-1.5c0.5-0.5,0.5-1.2,0-1.6c-0.5-0.5-1.2-0.5-1.6,0l-2,2h-3.2
				c-0.1-0.1-0.1-0.2-0.1-0.3l2.3-2.3h2.8c0.6,0,1.2-0.5,1.2-1.2c0-0.6-0.5-1.2-1.2-1.2h-2.1v-2.1c0-0.6-0.5-1.2-1.2-1.2
				c-0.6,0-1.1,0.5-1.1,1.2v2.8l-2.3,2.3c-0.1-0.1-0.2-0.1-0.3-0.1v-3.2l2-2c0.5-0.5,0.5-1.2,0-1.6s-1.2-0.5-1.6,0l-1.5,1.5
				l-1.5-1.5c-0.5-0.5-1.2-0.5-1.6,0c-0.5,0.5-0.5,1.2,0,1.6l2,2v3.2c-0.1,0.1-0.2,0.1-0.3,0.1l-2.3-2.3v-2.8c0-0.6-0.5-1.2-1.2-1.2
				s-1.1,0.5-1.1,1.2v2.1h-2.1c-0.6,0-1.2,0.5-1.2,1.2c0,0.6,0.5,1.2,1.2,1.2h2.8l2.3,2.3c-0.1,0.1-0.1,0.2-0.1,0.3h-3.2l-2-2
				c-0.5-0.5-1.2-0.5-1.6,0c-0.5,0.5-0.5,1.2,0,1.6l1.5,1.5l-1.5,1.5c-0.5,0.5-0.5,1.2,0,1.6c0.5,0.5,1.2,0.5,1.6,0l2-2h3.2
				c0.1,0.1,0.1,0.2,0.1,0.3l-2.3,2.3h-2.8c-0.6,0-1.2,0.5-1.2,1.2c0,0.6,0.5,1.2,1.2,1.2h2.1v2.1c0,0.6,0.5,1.2,1.1,1.2
				s1.2-0.5,1.2-1.2v-2.8l2.3-2.3c0.1,0.1,0.2,0.1,0.3,0.1v3.2l-2,2c-0.5,0.5-0.5,1.2,0,1.6c0.5,0.5,1.2,0.5,1.6,0l1.5-1.5l1.5,1.5
				c0.5,0.5,1.2,0.5,1.6,0s0.5-1.2,0-1.6l-2-2v-3.2c0.1-0.1,0.2-0.1,0.3-0.1l2.3,2.3v2.8c0,0.6,0.5,1.2,1.1,1.2s1.2-0.5,1.2-1.2
				v-2.1h2.1c0.6,0,1.2-0.5,1.2-1.2c0-0.6-0.5-1.2-1.2-1.2h-2.8l-2.3-2.3c0.1-0.1,0.1-0.2,0.1-0.3h3.2l2,2c0.5,0.5,1.2,0.5,1.6,0
				C717,336.3,717,335.6,716.5,335.2z M706.4,334.8c-0.6,0-1.2-0.5-1.2-1.2c0-0.6,0.5-1.2,1.2-1.2c0.6,0,1.2,0.5,1.2,1.2
				C707.6,334.3,707,334.8,706.4,334.8z"/>
		</g>
	</g>
	<g>
		<g>
			<path class="st2" d="M713.4,311.7h-3.7c-0.2-0.4-0.3-0.8-0.6-1.1l1.9-3.2c0.3-0.6,0.1-1.2-0.5-1.6c-0.6-0.3-1.2-0.1-1.6,0.5
				l-1.9,3.2c-0.2-0.1-0.4-0.1-0.6-0.1s-0.5,0-0.6,0.1l-1.9-3.2c-0.3-0.6-1-0.7-1.6-0.5c-0.6,0.3-0.7,1-0.5,1.6l1.9,3.2
				c-0.3,0.3-0.5,0.7-0.6,1.1h-3.7c-0.6,0-1.2,0.5-1.2,1.2c0,0.6,0.5,1.2,1.2,1.2h3.7c0.2,0.4,0.3,0.8,0.6,1.1l-1.9,3.2
				c-0.3,0.6-0.1,1.2,0.5,1.6c0.6,0.3,1.2,0.1,1.6-0.5l1.9-3.2c0.2,0.1,0.4,0.1,0.6,0.1s0.5,0,0.6-0.1l1.9,3.2
				c0.3,0.6,1,0.7,1.6,0.5c0.6-0.3,0.7-1,0.5-1.6l-1.9-3.2c0.3-0.3,0.5-0.7,0.6-1.1h3.7c0.6,0,1.2-0.5,1.2-1.2
				S714,311.7,713.4,311.7z M706.4,314c-0.6,0-1.2-0.5-1.2-1.2c0-0.6,0.5-1.2,1.2-1.2c0.6,0,1.2,0.5,1.2,1.2
				C707.6,313.5,707,314,706.4,314z"/>
		</g>
	</g>
	<g>
		<g>
			<path class="st2" d="M732,318.6h-3.7c-0.2-0.4-0.3-0.8-0.6-1.1l1.9-3.2c0.3-0.6,0.1-1.2-0.5-1.6c-0.6-0.3-1.2-0.1-1.6,0.5
				l-1.9,3.2c-0.2-0.1-0.4-0.1-0.6-0.1c-0.2,0-0.5,0-0.6,0.1l-1.9-3.2c-0.3-0.6-1-0.7-1.6-0.5c-0.6,0.3-0.7,1-0.5,1.6l1.9,3.2
				c-0.3,0.3-0.5,0.7-0.6,1.1h-3.7l0,0c-0.6,0-1.2,0.5-1.2,1.2c0,0.6,0.5,1.2,1.2,1.2h3.7c0.2,0.4,0.3,0.8,0.6,1.1l-1.9,3.2
				c-0.3,0.6-0.1,1.2,0.5,1.6c0.6,0.3,1.2,0.1,1.6-0.5l1.9-3.2c0.2,0.1,0.4,0.1,0.6,0.1c0.2,0,0.5,0,0.6-0.1l1.9,3.2
				c0.3,0.6,1,0.7,1.6,0.5c0.6-0.3,0.7-1,0.5-1.6l-1.9-3.2c0.3-0.3,0.5-0.7,0.6-1.1h3.7c0.6,0,1.2-0.5,1.2-1.2
				C733.2,319.1,732.7,318.6,732,318.6z M725.1,320.9c-0.6,0-1.2-0.5-1.2-1.2c0-0.7,0.5-1.2,1.2-1.2c0.6,0,1.2,0.5,1.2,1.2
				C726.3,320.4,725.7,320.9,725.1,320.9z"/>
		</g>
	</g>
	<g>
		<g>
			<circle class="st2" cx="734.3" cy="329.1" r="1.2"/>
		</g>
	</g>
	<g>
		<g>
			<circle class="st2" cx="718.1" cy="308.2" r="1.2"/>
		</g>
	</g>
	<g>
		<g>
			<path class="st2" d="M727.4,334.8h-1.2v-1.2c0-0.6-0.5-1.2-1.2-1.2s-1.2,0.5-1.2,1.2v1.2h-1.2c-0.6,0-1.2,0.5-1.2,1.2
				c0,0.7,0.5,1.2,1.2,1.2h1.2v1.2c0,0.6,0.5,1.2,1.2,1.2s1.2-0.5,1.2-1.2v-1.2h1.2c0.6,0,1.2-0.5,1.2-1.2
				C728.6,335.3,728.1,334.8,727.4,334.8z"/>
		</g>
	</g>
</g>
</svg>
